<svg viewBox="0 0 330 200" xmlns="http://www.w3.org/2000/svg"><g><g><g><g><g><line x1="58" y1="178" x2="53" y2="178" style="visibility: inherit;" fill="rgb(0, 0, 0)" stroke="rgb(204, 204, 204)" stroke-width="1px"></line><line x1="58" y1="160.2" x2="53" y2="160.2" style="visibility: inherit;" fill="rgb(0, 0, 0)" stroke="rgb(204, 204, 204)" stroke-width="1px"></line><line x1="58" y1="142.40000000000003" x2="53" y2="142.40000000000003" style="visibility: inherit;" fill="rgb(0, 0, 0)" stroke="rgb(204, 204, 204)" stroke-width="1px"></line><line x1="58" y1="124.6" x2="53" y2="124.6" style="visibility: inherit;" fill="rgb(0, 0, 0)" stroke="rgb(204, 204, 204)" stroke-width="1px"></line><line x1="58" y1="106.8" x2="53" y2="106.8" style="visibility: inherit;" fill="rgb(0, 0, 0)" stroke="rgb(204, 204, 204)" stroke-width="1px"></line><line x1="58" y1="89.00000000000001" x2="53" y2="89.00000000000001" style="visibility: inherit;" fill="rgb(0, 0, 0)" stroke="rgb(204, 204, 204)" stroke-width="1px"></line><line x1="58" y1="71.2" x2="53" y2="71.2" style="visibility: inherit;" fill="rgb(0, 0, 0)" stroke="rgb(204, 204, 204)" stroke-width="1px"></line><line x1="58" y1="53.400000000000034" x2="53" y2="53.400000000000034" style="visibility: inherit;" fill="rgb(0, 0, 0)" stroke="rgb(204, 204, 204)" stroke-width="1px"></line><line x1="58" y1="35.60000000000002" x2="53" y2="35.60000000000002" style="visibility: inherit;" fill="rgb(0, 0, 0)" stroke="rgb(204, 204, 204)" stroke-width="1px"></line><line x1="58" y1="17.80000000000001" x2="53" y2="17.80000000000001" style="visibility: inherit;" fill="rgb(0, 0, 0)" stroke="rgb(204, 204, 204)" stroke-width="1px"></line><line x1="58" y1="0" x2="53" y2="0" style="visibility: inherit;" fill="rgb(0, 0, 0)" stroke="rgb(204, 204, 204)" stroke-width="1px"></line></g><g transform="translate(48, 0)"><text x="0" y="178" dx="0em" dy="0.3em" style="text-anchor: end; visibility: hidden; font-family: &quot;Helvetica Neue&quot;, sans-serif; font-size: 12px; font-weight: 200;" fill="rgb(50, 49, 63)" stroke="none" stroke-width="1px">0.6</text><text x="0" y="160.2" dx="0em" dy="0.3em" style="text-anchor: end; visibility: inherit; font-family: &quot;Helvetica Neue&quot;, sans-serif; font-size: 12px; font-weight: 200;" fill="rgb(50, 49, 63)" stroke="none" stroke-width="1px">0.65</text><text x="0" y="142.40000000000003" dx="0em" dy="0.3em" style="text-anchor: end; visibility: hidden; font-family: &quot;Helvetica Neue&quot;, sans-serif; font-size: 12px; font-weight: 200;" fill="rgb(50, 49, 63)" stroke="none" stroke-width="1px">0.7</text><text x="0" y="124.6" dx="0em" dy="0.3em" style="text-anchor: end; visibility: inherit; font-family: &quot;Helvetica Neue&quot;, sans-serif; font-size: 12px; font-weight: 200;" fill="rgb(50, 49, 63)" stroke="none" stroke-width="1px">0.75</text><text x="0" y="106.8" dx="0em" dy="0.3em" style="text-anchor: end; visibility: hidden; font-family: &quot;Helvetica Neue&quot;, sans-serif; font-size: 12px; font-weight: 200;" fill="rgb(50, 49, 63)" stroke="none" stroke-width="1px">0.8</text><text x="0" y="89.00000000000001" dx="0em" dy="0.3em" style="text-anchor: end; visibility: inherit; font-family: &quot;Helvetica Neue&quot;, sans-serif; font-size: 12px; font-weight: 200;" fill="rgb(50, 49, 63)" stroke="none" stroke-width="1px">0.85</text><text x="0" y="71.2" dx="0em" dy="0.3em" style="text-anchor: end; visibility: hidden; font-family: &quot;Helvetica Neue&quot;, sans-serif; font-size: 12px; font-weight: 200;" fill="rgb(50, 49, 63)" stroke="none" stroke-width="1px">0.9</text><text x="0" y="53.400000000000034" dx="0em" dy="0.3em" style="text-anchor: end; visibility: inherit; font-family: &quot;Helvetica Neue&quot;, sans-serif; font-size: 12px; font-weight: 200;" fill="rgb(50, 49, 63)" stroke="none" stroke-width="1px">0.95</text><text x="0" y="35.60000000000002" dx="0em" dy="0.3em" style="text-anchor: end; visibility: hidden; font-family: &quot;Helvetica Neue&quot;, sans-serif; font-size: 12px; font-weight: 200;" fill="rgb(50, 49, 63)" stroke="none" stroke-width="1px">1</text><text x="0" y="17.80000000000001" dx="0em" dy="0.3em" style="text-anchor: end; visibility: inherit; font-family: &quot;Helvetica Neue&quot;, sans-serif; font-size: 12px; font-weight: 200;" fill="rgb(50, 49, 63)" stroke="none" stroke-width="1px">1.05</text><text x="0" y="0" dx="0em" dy="0.3em" style="text-anchor: end; visibility: hidden; font-family: &quot;Helvetica Neue&quot;, sans-serif; font-size: 12px; font-weight: 200;" fill="rgb(50, 49, 63)" stroke="none" stroke-width="1px">1.1</text></g><line x1="58" y1="0" x2="58" y2="178" fill="rgb(0, 0, 0)" stroke="rgb(204, 204, 204)" stroke-width="1px"></line></g></g><g transform="translate(58, 0)" clip-path="url(#clip_0)"><clipPath id="clip_0"><rect width="272" height="178"></rect></clipPath><g><g><g><line x1="0" y1="0" x2="0" y2="178" fill="rgb(0, 0, 0)" stroke="rgb(60, 60, 60)" stroke-width="1px" opacity="0.25"></line><line x1="27.200000000000003" y1="0" x2="27.200000000000003" y2="178" fill="rgb(0, 0, 0)" stroke="rgb(60, 60, 60)" stroke-width="1px" opacity="0.25"></line><line x1="54.400000000000006" y1="0" x2="54.400000000000006" y2="178" fill="rgb(0, 0, 0)" stroke="rgb(60, 60, 60)" stroke-width="1px" opacity="0.25"></line><line x1="81.6" y1="0" x2="81.6" y2="178" fill="rgb(0, 0, 0)" stroke="rgb(60, 60, 60)" stroke-width="1px" opacity="0.25"></line><line x1="108.80000000000001" y1="0" x2="108.80000000000001" y2="178" fill="rgb(0, 0, 0)" stroke="rgb(60, 60, 60)" stroke-width="1px" opacity="0.25"></line><line x1="136" y1="0" x2="136" y2="178" fill="rgb(0, 0, 0)" stroke="rgb(60, 60, 60)" stroke-width="1px" opacity="0.25"></line><line x1="163.2" y1="0" x2="163.2" y2="178" fill="rgb(0, 0, 0)" stroke="rgb(60, 60, 60)" stroke-width="1px" opacity="0.25"></line><line x1="190.39999999999998" y1="0" x2="190.39999999999998" y2="178" fill="rgb(0, 0, 0)" stroke="rgb(60, 60, 60)" stroke-width="1px" opacity="0.25"></line><line x1="217.60000000000002" y1="0" x2="217.60000000000002" y2="178" fill="rgb(0, 0, 0)" stroke="rgb(60, 60, 60)" stroke-width="1px" opacity="0.25"></line><line x1="244.8" y1="0" x2="244.8" y2="178" fill="rgb(0, 0, 0)" stroke="rgb(60, 60, 60)" stroke-width="1px" opacity="0.25"></line><line x1="272" y1="0" x2="272" y2="178" fill="rgb(0, 0, 0)" stroke="rgb(60, 60, 60)" stroke-width="1px" opacity="0.25"></line></g><g><line x1="0" y1="178" x2="272" y2="178" fill="rgb(0, 0, 0)" stroke="rgb(60, 60, 60)" stroke-width="1px" opacity="0.25"></line><line x1="0" y1="160.2" x2="272" y2="160.2" fill="rgb(0, 0, 0)" stroke="rgb(60, 60, 60)" stroke-width="1px" opacity="0.25"></line><line x1="0" y1="142.40000000000003" x2="272" y2="142.40000000000003" fill="rgb(0, 0, 0)" stroke="rgb(60, 60, 60)" stroke-width="1px" opacity="0.25"></line><line x1="0" y1="124.6" x2="272" y2="124.6" fill="rgb(0, 0, 0)" stroke="rgb(60, 60, 60)" stroke-width="1px" opacity="0.25"></line><line x1="0" y1="106.8" x2="272" y2="106.8" fill="rgb(0, 0, 0)" stroke="rgb(60, 60, 60)" stroke-width="1px" opacity="0.25"></line><line x1="0" y1="89.00000000000001" x2="272" y2="89.00000000000001" fill="rgb(0, 0, 0)" stroke="rgb(60, 60, 60)" stroke-width="1px" opacity="0.25"></line><line x1="0" y1="71.2" x2="272" y2="71.2" fill="rgb(0, 0, 0)" stroke="rgb(60, 60, 60)" stroke-width="1px" opacity="0.25"></line><line x1="0" y1="53.400000000000034" x2="272" y2="53.400000000000034" fill="rgb(0, 0, 0)" stroke="rgb(60, 60, 60)" stroke-width="1px" opacity="0.25"></line><line x1="0" y1="35.60000000000002" x2="272" y2="35.60000000000002" fill="rgb(0, 0, 0)" stroke="rgb(60, 60, 60)" stroke-width="1px" opacity="0.25"></line><line x1="0" y1="17.80000000000001" x2="272" y2="17.80000000000001" fill="rgb(0, 0, 0)" stroke="rgb(60, 60, 60)" stroke-width="1px" opacity="0.25"></line><line x1="0" y1="0" x2="272" y2="0" fill="rgb(0, 0, 0)" stroke="rgb(60, 60, 60)" stroke-width="1px" opacity="0.25"></line></g></g></g><g><g><line x1="0" y1="391.59999999999997" x2="272" y2="391.59999999999997" fill="rgb(0, 0, 0)" stroke="rgb(153, 153, 153)" stroke-width="1.5px"></line></g></g><g><g><line x1="27.200000000000003" y1="0" x2="27.200000000000003" y2="178" fill="rgb(0, 0, 0)" stroke="rgb(153, 153, 153)" stroke-width="1.5px"></line></g></g><g><g><g><g><g><path style="fill: none;" stroke="rgb(255, 112, 67)" stroke-width="2px" d="M34.908888,189.80052646192058L35.039448,170.39531575706016L35.06556,167.65218944405032L35.291864,177.13131368754892L35.970775999999994,176.14378821120923L36.258008,175.5512729262503L36.379864,168.5207637523669L36.519128,170.9774582521295L36.684504000000004,179.12647495268945L37.058775999999995,170.66588497073423L37.258968,167.8145309822627L37.728984000000004,168.32871858937688L37.772504000000005,155.28723115333327L37.929176,147.46233869189456L38.051032,169.4674032153146L38.181592,162.6454419291557L38.32956,151.87726515746206L38.573272,149.86635909447372L39.162288,150.8848154566853L39.519152,140.37088927400458L39.562672,142.9625335644037L39.588784000000004,142.29252013864212L41.085871999999995,128.54051208318336L41.27736,142.53930724991113L41.303472000000006,130.91358434994618L41.468848,128.38815060996762L41.608112,135.7728903659807L41.982384,120.17873421958828L42.15646400000001,128.62224053175302L42.347952,142.58834431905188L42.478512,137.61800659143108L42.696112,127.96080395485868L42.722224000000004,128.84148237291524L42.84408,122.69488942374916L42.948528,119.00693365424951L42.97464,127.91916019254974L43.427248,131.0414961155298L43.514288,128.46489766931788L43.610032000000004,111.34393860159075L44.045232,114.42136316095443L44.097455999999994,105.14281789657265L44.28024,110.7006907379436L44.419504,107.36041444276616L44.811184000000004,112.0312486656597L45.548168000000004,114.83374919939584L47.114888,98.71524951963752L47.297672,102.39414971178252L48.05492,102.37648982706949L48.211592,93.46589389624171L48.646792,103.69453633774502L48.994952,112.05672180264698L49.151624,99.27403308158821L49.325703999999995,87.1544198489529L49.630344,95.45765190937178L49.70868,95.98959114562305L49.726088,98.53375468737381L49.7522,104.5102528124243L49.79572,96.97115168745457L49.961096,101.34769101247272L50.239624,97.29861460748364L50.57908,94.86916876449018L50.935944,100.08650125869416L51.002720000000004,107.40817864065353L51.490144,107.60990718439213L51.864416,92.15594431063526L52.099424,85.10856658638113L52.195168,96.4551399518287L52.586848,92.13808397109725L53.030752,89.54785038265834L53.552992,105.79371022959502L53.727072,97.74122613775702L53.91856,92.90973568265422L54.153568,90.01084140959256L54.432095999999994,81.59650484575553L54.771552,87.67290290745332L55.65936,89.09374174447201L55.676767999999996,89.9462450466832L55.885664,90.45774702800993L55.92048,88.53964821680599L56.042336,82.93878893008358L56.05104,88.47827335805013L56.155488,87.35196401483009L56.44272,88.90117840889805L56.988216,94.28070704533884L57.023032,97.50842422720328L57.171,103.89505453632196L57.258039999999994,92.15203272179318L57.371192,94.00621963307589L57.545272,92.89373177984552L57.553976,85.55123906790732L58.232887999999996,76.6957434407444L58.581047999999996,78.05744606444667L58.65068,89.999467638668L59.04236,94.93968058320081L59.69516,100.12880834992048L59.729976,98.79228500995228L59.73868,89.09037100597139L59.808312,85.49422260358287L59.947576,92.23653356214976L59.95628,91.83192013728984L60.165175999999995,84.91415208237389L60.635191999999996,82.98849124942434L60.704824,84.05809474965463L60.765752,89.14985684979278L60.809272,92.20491410987567L61.705783999999994,100.71294846592542L61.9582,83.56776907955525L62.140984,84.40566144773315L62.912784,73.78339686863991L63.365392,78.53503812118394L63.739664,76.93602287271037L63.800591999999995,69.30161372362622L64.087824,69.17096823417572L64.348944,57.96758094050544L64.38376,64.59554856430329L65.010448,66.34732913858197L65.698064,78.5233974831492L65.837328,70.25403848988951L66.03752,74.1924230939337L66.22900800000001,65.43045385636024L66.49883200000001,69.07327231381612L66.899216,73.4839633882897L67.395344,71.6803780329738L67.525904,68.37322681978429L67.760912,77.51393609187059L67.961104,65.19836165512233L68.091664,71.15901699307338L68.36148800000001,72.51041019584407L68.63131200000001,64.42124611750647L68.77057599999999,64.01774767050388L69.542376,72.67564860230233L69.63812,71.19538916138139L70.14295200000001,63.63223349682886L70.76964,63.54434009809731L70.90890399999999,54.591604058858394L71.056872,58.11996243531503L71.10909600000001,60.23697746118903L71.12650400000001,61.507186476713414L71.143912,62.26931188602805L71.222248,62.72658713161684L71.38762399999999,60.775952278970124L71.500776,66.28057136738205L71.62263200000001,69.58334282042921L71.68356,69.34000569225753L71.918568,66.96900341535452L71.953384,69.99640204921273L72.066536,69.58784122952763L72.07524000000001,62.66770473771656L72.39728799999999,60.740622842629946L72.710632,59.58437370557796L73.441768,54.4406242233468L73.659368,51.35437453400809L74.02493600000001,51.72762472040489L74.03363999999999,56.40157483224296L74.33828,52.53094489934581L74.608104,56.883566939607476L74.840256,55.04514016376446L74.944704,58.39208409825869L75.005632,60.40025045895523L75.127488,61.605150275373134L75.188416,60.10309016522389L75.397312,54.751854099134334L75.51916800000001,49.31611245948059L75.597504,48.2796674756884L75.623616,52.10780048541304L75.823808,58.8546802912478L75.867328,58.45280817474868L76.23289600000001,60.43668490484923L76.55494399999999,59.40201094290954L76.607168,63.23120656574574L77.120704,63.30372393944745L77.28608,63.34723436366848L77.364416,58.92334061820107L77.42534400000001,51.81900437092065L77.912768,52.006402622552415L78.356672,58.793841573531466L78.791872,60.64130494411887L80.11488,66.1997829664713L80.167104,60.63486977988275L80.32377600000001,61.74592186792965L80.393408,55.737553120757795L80.947608,72.15753187245467L80.999832,66.43451912347281L81.025944,65.22571147408368L81.11298400000001,64.50042688445019L81.14779999999999,66.29025613067012L81.16520799999999,60.68915367840208L81.208728,57.32849220704125L82.14876,57.537095324224765L82.218392,59.88725719453487L82.227096,61.29735431672094L82.36636,59.91841259003259L83.698072,65.7660475540196L83.915672,62.599628532411785L84.751256,56.2497771194471L84.812184,65.78986627166823L85.273496,67.06391976300094L85.58684,65.60335185780058L86.013336,55.827011114680346L86.9244,58.861206668808194L86.93310399999999,62.90672400128493L87.22904,60.88403440077097L87.646832,57.445420640462615L87.681648,53.157252384277584L87.75128,52.80935143056659L88.09944,45.92561085833995L88.116848,48.470366515003974L88.177776,54.44721990900241L88.212592,58.03333194540146L88.612976,55.734999167240886L88.726128,56.58099950034455L88.75224,65.98859970020673L88.90020799999999,64.95815982012407L88.917616,66.56489589207442L89.082992,67.52893753524464L89.613936,56.98236252114678L89.70968,55.10441751268809L89.979504,65.10265050761289L90.01432,64.42659030456774L90.04043200000001,57.3459541827407L90.954352,59.772572509644434L91.05879999999999,56.77854350578667L91.241584,50.53212610347201L91.267696,53.459275662083215L91.32862399999999,57.44056539724994L91.633264,59.82933923834999L92.251248,50.13760354300999L92.753224,55.447562125806L93.014344,51.95853727548358L93.17101600000001,47.64012236529015L93.466952,47.27407341917407L93.675848,47.05444405150445L93.797704,58.04766643090271L94.26772,53.518599858541606L95.14682400000001,50.801159915124956L95.338312,49.17069594907497L96.06944800000001,52.642417569445L96.13037600000001,59.17545054166699L96.173896,65.32027032500024L97.018184,64.55716219500016L98.167112,64.09929731700011L98.18451999999999,61.59957839020008L98.210632,57.87474703412008L98.602312,53.41484822047204L99.1304,66.31390893228323L99.670048,67.37834535936993L99.75708800000001,65.79200721562195L99.818016,60.39020432937319L99.87024,52.699122597623926L99.992096,54.759473558574356L100.096544,53.77068413514465L100.157472,57.6274104810868L100.2184,48.81644628865206L100.357664,50.20486777319121L100.679712,48.812920663914696L100.923424,45.75275239834883L101.402144,46.14165143900931L101.750304,46.3749908634056L101.76771199999999,44.28999451804336L101.898272,40.813996710826046L101.941792,45.40339802649558L102.081056,45.93203881589733L102.159392,46.249223289538406L102.376992,44.214533973723064L103.195168,47.44372038423381L103.212576,44.9312322305403L103.96112,47.87373933832416L104.16131200000001,42.96424360299454L104.196128,51.14354616179672L104.291872,51.601127697078056L104.300576,47.425676618246825L104.3528,47.145405970948104L104.611064,46.97724358256883L104.872184,46.87634614954129L105.13330400000001,49.040807689724744L105.27256799999999,50.339484613834884L105.307384,46.668690768300934L106.499832,46.691214460980575L106.69132,55.60472867658834L106.830584,49.82783720595299L107.439864,48.58670232357184L107.64876,50.06702139414311L107.883768,53.18021283648589L108.73676,48.37312770189155L108.77157600000001,49.93887662113494L108.82379999999999,50.87832597268098L109.206776,53.66699558360861L109.946616,53.11519735016519L109.96402400000001,50.55911841009909L110.111992,49.02547104605944L110.251256,50.3302826276357L110.364408,46.663169576581424L110.89249600000001,44.46290174594887L111.01435199999999,45.36774104756935L111.52788799999999,54.81064462854161L111.762896,58.25138677712495L111.789008,60.315832066274965L111.81512,52.65449923976499L111.99790399999999,48.05769954385897L112.215504,47.524619726315365L112.33736,58.329771835789245L112.59848000000001,51.46286310147353L112.650704,56.24271786088414L112.676816,54.66063071653052L113.17294399999999,47.0363784299183L113.46017599999999,46.91182705795097L113.538512,51.2870962347706L113.590736,51.68725774086235L113.66036799999999,51.92735464451739L114.10427200000001,47.62141278671044L114.522064,42.812847672026294L114.71355199999999,44.37770860321581L114.73096,45.31662516192952L115.07041600000001,43.65497509715772L115.157456,44.882985058294594L115.235792,45.6197910349768L115.42728,46.06187462098606L115.51432,48.55212477259164L115.64488,45.59627486355498L115.94952,43.822764918133004L116.097488,42.758658950879806L116.175824,46.57019537052784L116.695208,46.63211722231671L116.747432,48.89427033339004L116.92151199999999,48.02656220003408L117.034664,45.28093732002043L117.348008,43.633562392012294L117.37411999999999,44.87013743520734L117.530792,50.06208246112439L117.757096,50.95224947667461L118.383784,51.486349686004786L118.47082400000001,56.25680981160288L118.73194400000001,50.21908588696171L118.827688,48.821451532177036L118.89732000000001,52.43287091930624L118.966952,54.59972255158375L119.001768,62.57483353095023L119.11492,54.00990011857013L119.23677599999999,57.77094007114209L120.011432,51.12756404268525L120.107176,49.36653842561114L120.42052000000001,57.20992305536667L120.68163999999999,53.01595383322001L120.69904799999999,54.949572299932015L121.047208,53.884743379959176L121.09943200000001,51.02084602797551L121.38666400000001,47.07750761678531L121.499816,46.93650457007118L121.543336,51.301902742042714L121.821864,45.02114164522564L121.90890399999999,52.377684987135396L122.196136,52.34161099228126L122.20483999999999,45.64496659536877L122.48051199999999,48.30197995722125L122.619776,45.44618797433276L122.637184,41.507712784599704L122.785152,45.81962767075984L122.93311999999999,43.95677660245593L122.95052799999999,42.83906596147358L123.15071999999999,39.943439576884145L123.168128,51.55606374613045L123.377024,49.62363824767826L123.385728,50.68918294860697L123.768704,46.87850976916417L123.77740800000001,46.81710586149853L124.00371200000001,46.78026351689908L124.377984,46.758158110139476L124.38668799999999,53.41989486608368L124.41279999999999,46.2919369196502L124.621696,48.69016215179013L124.647808,47.904097291074066L124.856704,49.65745837464448L124.943744,50.709475024786656L125.178752,44.665685014872L125.744512,45.48941100892321L126.057856,41.533646605353965L126.231936,43.61018796321238L126.440832,42.631112777927456L127.04140799999999,44.2686676667565L127.15456,45.25120060005386L127.95532800000001,43.61572036003233L127.972736,44.8594322160194L127.998848,52.28065932961164L128.085888,45.608395597766986L128.181632,50.50503735866019L128.483416,51.21802241519612L128.61397599999998,44.970813449117685L128.631384,43.44748806947064L128.718424,44.75849284168234L129.031768,43.320095705009436L129.519192,51.35705742300566L129.780312,51.729234453803414L129.980504,51.95254067228204L130.554968,52.08652440336925L130.589784,47.71691464202158L130.920536,47.32014878521292L131.085912,47.08208927112773L131.512408,44.714253562676646L132.260952,45.51855213760598L132.339288,48.226131282563586L132.78319199999999,45.40067876953813L133.06172,50.38040726172288L133.166168,53.36824435703373L133.75804,52.93594661422027L133.914712,48.22656796853215L133.923416,47.62594078111934L134.071384,47.26556446867161L134.114904,49.27433868120298L134.260016,48.25460320872182L134.851888,43.19276192523313L135.017264,42.380657155139886L135.18264,44.11839429308398L135.643952,45.161036575850346L135.79192,43.56162194551021L135.905072,42.60197316730614L136.18359999999998,39.801183900383705L136.322864,44.795710340230244L136.644912,45.56742620413817L136.70584,43.80545572248292L136.766768,44.973273433489766L136.862512,50.12396406009388L136.87121599999998,44.31437843605633L137.341232,45.27862706163381L137.428272,52.53217623698029L137.4892,50.20930574218815L137.497904,46.59058344531289L138.237744,51.09435006718776L138.333488,47.121610040312675L138.542384,42.51296602418762L138.759984,39.74777961451261L138.820912,42.53866776870757L138.864432,41.98820066122457L139.07332799999998,39.432920396734744L139.23,44.574752238040816L139.308336,43.20985134282452L139.386672,40.16591080569472L140.065584,45.01454648341681L140.117808,52.37372789005009L140.376072,47.88923673403002L140.43699999999998,47.42354204041803L140.515336,47.144125224250786L141.04628,46.9764751345505L141.081096,46.875885080730285L141.124616,46.815531048438146L141.333512,51.2293186290629L141.429256,49.42759117743776L141.464072,46.12155470646266L141.69037600000001,48.587932823877566L141.69908,45.617759694326566L141.79482399999998,43.83565581659596L142.24743199999998,44.991393489957545L142.804488,43.45983609397453L142.82189599999998,40.31590165638471L142.908936,49.55454099383084L143.17876,55.097724596298505L143.587848,53.973634757779124L143.78804,48.84918085466748L144.22324,56.899508512800494L144.519176,48.37970510768031L145.058824,49.942823064608206L145.328648,48.65569383876496L145.35476,50.10841630325896L145.87699999999998,44.305049781955375L146.04237600000002,44.825388496492536L146.11200799999997,41.13523309789554L146.48342399999999,41.146139858737314L146.51824,45.60268391524235L146.718432,46.05161034914542L146.74454400000002,48.54596620948729L146.95344,47.81757972569241L146.979552,45.15554783541543L147.08399999999997,41.333328701249286L148.050144,45.71499722074955L148.067552,43.89399833244974L148.241632,45.026398999469876L148.920544,50.15583939968195L149.077216,48.78350363980914L149.877984,50.18510218388549L150.147808,46.57606131033128L150.374112,42.185636786198785L150.73968,44.00138207171929L150.896352,45.09082924303161L150.939872,45.744497545818945L151.09654400000002,48.36169852749134L151.20099199999999,47.70701911649482L151.227104,53.989211469896915L151.688416,48.85852688193816L151.723232,45.780116129162906L152.199096,46.158069677497735L152.373176,44.15984180649866L152.738744,45.18590508389923L152.75615200000001,45.80154305033952L153.008568,41.720925830203726L153.043384,39.272555498122244L153.069496,40.02853329887333L153.130424,44.932119979324L153.21746399999998,43.42427198759444L153.574328,44.74456319255668L153.757112,43.311737915534025L153.77452,40.22704274932042L153.809336,40.601225649592266L154.348984,43.050735389755374L154.69714399999998,46.7454412338532L154.705848,44.512264740311934L154.84511200000003,49.84735884418717L154.90604000000002,46.3734153065123L155.088824,42.0640491839074L155.34124,46.15342951034444L155.524024,48.60705770620669L155.62847200000002,47.85423462372401L155.941816,45.17754077423439L156.03755999999998,45.796524464540624L156.333496,41.71791467872441L156.90796,43.720748807234656L156.942776,42.69744928434082L157.456312,39.858469570604484L157.56946399999998,40.380081742362705L157.77836,40.69304904541761L157.804472,43.10582942725057L158.396344,44.55349765635029L158.422456,43.19709859381018L158.535608,42.38325915628613L158.92728799999998,39.66995549377171L158.970808,38.04197329626305L158.988216,39.290183977757806L159.01432799999998,40.03911038665467L159.101368,42.71346623199287L159.118776,46.54307973919572L159.632312,44.39084784351746L159.68453599999998,40.874508706110475L159.69324,43.21470522366627L159.788984,44.618823134199744L160.163256,41.01129388051987L160.189368,43.29677632831195L160.598456,40.21806579698716L160.615864,42.82083947819234L161.051064,39.932503686915425L161.12939999999998,40.424502212149235L161.138104,38.49470132728956L161.199032,39.56182079637372L161.320888,37.97709247782424L161.669048,41.47625548669453L161.82572,43.575753292016714L161.88664799999998,47.06045197521004L161.99980000000002,44.70127118512602L162.17388,43.28576271107565L162.287032,42.43645762664542L162.34796,41.926874575987256L162.548152,43.84612474559236L162.55685599999998,42.772674847355404L162.591672,44.353604908413274L162.80927200000002,45.30216294504794L163.052984,45.87129776702875L163.105208,41.762778660217265L163.140024,41.522667196130385L163.253176,39.15360031767827L163.27058399999999,48.85716019060695L163.557816,45.77929611436417L163.65356,43.932577668618535L163.998864,42.82454660117111L164.23387200000002,42.15972796070267L164.46888,41.7608367764216L164.477584,41.52150206585296L164.73,41.3779012395118L165.17390400000002,43.51674074370706L165.417616,42.57504444622424L165.661328,44.23502666773453L165.757072,43.0060160006407L166.009488,46.71860960038438L166.018192,44.49616576023064L166.375056,47.61269945613836L166.80155200000002,49.48261967368302L167.053968,43.92957180420984L167.941776,45.04774308252587L167.95048,43.49364584951556L167.959184,44.78618750970932L168.002704,45.561712505825625L168.09844800000002,46.02702750349542L168.237712,41.856216502097254L168.31604800000002,43.80372990125838L168.333456,40.52223794075505L168.55105600000002,38.55334276445305L168.846992,41.822005658671856L169.247376,41.558203395203094L169.665168,41.399922037121854L169.949544,43.52995322227312L169.97565600000001,44.80797193336383L169.98435999999998,43.34978316001832L170.13232799999997,44.699869896010966L170.236776,49.959921937606595L170.428264,44.21595316256398L170.60234400000002,47.444571897538395L170.74160799999999,42.70674313852308L170.959208,42.08904588311384L171.55108,39.49342752986831L171.751272,46.83605651792101L171.76868,42.34163391075262L171.91664799999998,41.86998034645157L172.830568,43.81198820787094L173.12650399999998,40.527192924722584L173.21354399999998,40.78131575483357L173.68356,38.708789452900135L173.72708,37.46527367174011L174.092648,45.61916420304405L174.153576,41.611498521826434L174.388584,41.43189911309588L174.397288,41.32413946785752L174.72804,39.034483680714516L175.154536,42.11069020842871L175.50269600000001,39.50641412505726L175.520104,40.168848475034366L175.92633600000002,40.566309085020634L175.99596799999998,43.02978545101237L177.005632,40.05787127060742L177.13619200000002,40.499722762364485L177.17100800000003,40.76483365741868L177.29286399999998,38.6989001944512L177.466944,37.459340116670745L178.058816,38.94060407000245L178.084928,37.604362442001474L178.267712,41.25261746520087L178.389568,38.991570479120526L178.41567999999998,42.0849422874723L178.49401600000002,39.4909653724834L178.702912,42.38457922349005L178.79865600000002,46.34574753409399L178.920512,46.49744852045637L178.95532799999998,42.13846911227384L179.120704,43.973081467364324L179.399232,42.848848880418586L179.738688,42.174309328251155L179.79091200000002,41.76958559695069L179.86054399999998,43.751751358170395L180.25222399999998,42.716050814902275L180.54816,46.54463048894135L180.80928,44.39177829336484L180.89632,43.100066976018894L181.192256,44.55004018561135L181.496896,40.970024111366826L181.610048,43.27201446682014L181.662272,42.42820868009207L181.775424,48.59692520805527L182.219328,43.39815512483321L183.03750399999998,44.7288930748999L183.11584000000002,41.07733584493997L183.403072,45.56140150696396L183.716416,48.25184090417835L184.003648,45.416104542507014L184.169024,43.71466272550424L184.229952,44.918797635302525L184.404032,43.41627858118153L184.647744,44.73976714870889L185.13516800000002,47.75886028922537L185.15257599999998,45.1203161735352L185.59647999999999,45.76218970412114L186.34502400000002,46.14731382247268L186.432064,44.1533882934836L186.754112,45.18203297609017L186.81504,43.57421978565412L186.832448,47.059531871392494L187.900184,44.70071912283552L188.431128,43.28543147370132L188.474648,42.43625888422079L188.640024,41.92675533053247L188.744472,41.621053198319515L188.753176,41.43763191899171L188.8054,41.327579151395014L188.970776,43.48654749083701L189.231896,40.33192849450222L189.2406,38.439157096701365L189.275416,39.5284942580208L189.37116,46.8570965548125L189.440792,44.579257932887515L189.815064,43.21255475973251L190.15452000000002,42.392532855839505L190.293784,39.67551971350372L190.598424,42.495311828102274L190.80732,44.18718709686135L191.33826399999998,40.7523122581168L191.608088,38.6913873548701L191.63420000000002,44.1298324129221L192.226072,40.71789944775327L192.27829599999998,40.89573966865197L192.57423200000002,45.45244380119115L192.661272,45.96146628071469L192.80924000000002,44.04187976842883L193.02684000000002,40.6651278610573L193.11388000000002,40.8640767166344L193.279256,45.433446029980644L193.50556,45.95006761798837L193.59844800000002,46.26004057079305L193.78993599999998,46.44602434247585L194.817008,44.3326146054855L195.556848,43.064568763291305L195.835376,42.303741257974764L196.227056,44.07224475478489L196.44465599999998,45.133346852870886L196.67096,43.54500811172255L196.679664,44.81700486703349L196.697072,45.580202920220074L196.723184,43.813121752132076L197.22801600000003,44.97787305127929L197.306352,45.6767238307676L197.880816,43.87103429846056L197.906928,42.78762057907636L197.98526399999997,39.91257234744583L198.420464,40.41254340846751L198.59454399999998,42.93752604508049L198.646768,42.22751562704832L199.04715199999998,41.80150937622898L199.30827200000002,39.320905625737424L199.31697599999998,42.28254337544246L199.39531200000002,41.83452602526549L199.46494399999997,43.790715615159286L199.91469600000002,42.739429369095575L199.98432799999998,39.88365762145736L200.080072,38.17019457287441L200.123592,37.14211674372467L201.19418399999998,40.97527004623484L201.220296,47.725162027740936L201.342152,42.875097216644576L202.15162400000003,42.190058329986755L202.169032,41.779034997992056L202.691272,39.307420998795266L202.743496,40.049452599277174L202.778312,38.26967155956632L203.14388,39.4268029357398L203.378888,37.896081761443895L203.518152,41.4276490568663L203.56167200000002,41.32158943411977L203.59648800000002,43.48295366047188L203.683528,40.32977219628316L203.79668,40.662863317769904L203.84890399999998,43.08771799066193L204.649672,44.54263079439718L204.84116,40.96557847663834L204.95431200000002,41.04434708598299L205.137096,38.86660825158981L205.311176,37.55996495095391L205.447584,36.77597897057237L205.882784,36.30558738234345L206.100384,42.6983524294061L206.77059200000002,42.08401145764367L206.796704,43.94040687458619L206.83152,45.054244124751705L206.96208,43.49754647485102L207.083936,42.56352788491063L207.78025599999998,39.77811673094638L207.91952,40.33187003856784L208.929184,38.439122023140726L209.3992,39.52847321388444L209.721248,40.182083928330655L210.025888,38.349250356998425L210.40016000000003,39.47455021419904L210.626464,37.92473012851943L210.722208,36.994838077111666L210.73091200000002,38.661902846267026L211.044256,37.43714170776022L211.22704,38.92728502465613L211.502712,42.046371014793664L211.624568,39.46782260887622L212.181624,40.14569356532573L212.634232,38.327416139195435L212.921464,39.46144968351729L213.287032,40.141869810110364L213.469816,40.55012188606622L213.687416,43.02007313163972L214.523,44.50204387898384L214.7406,40.941226327390325L214.879864,41.02973579643421L214.993016,43.30784147786056L215.04524,44.67470488671634L215.13228,41.04482293202983L215.23672799999997,38.8668937592179L215.367288,39.785136255530745L215.39339999999999,40.33608175331844L215.732856,38.44164905199108L215.81119199999998,39.52998943119465L215.92434400000002,40.18299365871681L215.967864,38.349796195230084L216.29861599999998,37.24987771713805L216.39436,38.814926630282855L216.577144,39.75395597816973L216.907896,42.542373586901846L217.09938400000001,44.21542415214108L217.34024,45.21925449128469L217.392464,43.59655269477085L217.42728,40.397931616862536L217.53172800000002,40.70375897011755L217.549136,38.662255382070555L218.019152,37.43735322924232L218.358608,43.37741193754539L218.724176,44.7164471625272L218.802512,41.069868297516365L219.01140800000002,41.106920978509805L219.20289599999998,41.12915258710589L219.43790399999997,41.14249155226355L219.69031999999999,41.15049493135811L220.290896,43.38029695881491L220.482384,42.49317817528896L221.152592,39.73590690517341L221.21352000000002,42.53154414310407L221.283152,39.758926485862474L221.570384,40.320355891517494L221.831504,40.65721353491048L221.95336,45.309328120946304L222.04039999999998,43.6505968725678L222.101328,40.430358123540685L222.440784,40.72321487412441L222.919504,38.673928924474666L223.06747199999998,39.66935735468479L223.137104,38.0416144128109L223.14580800000002,41.5149686476866L223.20388,39.14898118861197L223.2474,39.95438871316719L223.926312,40.43763322790031L224.20484000000002,47.40257993674018L224.413736,47.131547962044124L224.500776,42.518928777226506L224.72708,39.75135726633593L225.040424,40.31581435980158L225.397288,40.65448861588092L225.405992,38.63269316952858L225.580072,37.41961590171715L225.841192,41.14176954103027L226.224168,38.92506172461816L226.546216,42.04503703477087L226.67677600000002,39.46702222086253L226.85956000000002,37.92021333251756L227.085864,41.442127999510575L227.172904,39.10527679970636L227.364392,37.70316607982383L227.590696,39.08689964789431L228.878888,39.91713978873659L229.131304,40.41528387324195L229.41567999999998,45.16417032394517L229.67680000000001,43.56350219436712L229.702912,47.05310131662026L229.93792,42.4718607899722L230.216448,44.173116473983356L230.312192,45.19386988439004L230.71257599999998,41.35632193063404L230.747392,41.27879315838041L230.97369600000002,41.232275895028266L230.999808,38.979365537016974L231.2,44.30261932221015L231.234816,43.04657159332609L231.24352000000002,42.29294295599567L231.67872,44.065765773597434L231.8528,40.67945946415847L231.96595200000002,38.64767567849509L232.23577600000002,37.42860540709705L232.836352,38.92216324425823L232.862464,37.59329794655497L232.90598400000002,41.245978767932996L232.966912,45.66258726075978L233.01043199999998,41.6375523564559L233.619712,41.44753141387355L233.706752,39.10851884832414L233.71545600000002,39.9301113089945L233.72416,40.42306678539671L234.977536,40.71884007123805L235.038464,43.12130404274285L235.288024,40.11278242564572L235.401176,40.532669455387406L235.44469600000002,38.559601673232464L235.575256,41.82576100393945L235.81896799999998,39.33545660236368L235.90600799999999,37.84127396141821L236.18453599999998,41.39476437685093L236.34991200000002,41.30185862611057L236.480472,39.02111517566635L236.93308,37.65266910539984L237.098456,39.05660146323987L237.10716000000002,37.67396087794393L237.141976,36.844376526766354L237.32476,43.02162591605986L237.39439199999998,40.05297554963593L237.429208,38.27178532978158L237.707736,41.653071197869L238.01237600000002,43.68184271872141L238.491096,40.44910563123287L238.813144,38.509463378739724L238.917592,41.79567802724384L239.03944800000002,45.99240681634626L239.28316,41.835444089807794L239.29186399999998,41.56626645388468L239.605208,43.62975987233085L240.057816,40.41785592339852L240.11004,42.94071355403915L240.170968,40.0044281324235L240.310232,40.4676568794541L240.353752,38.52059412767247L240.362456,37.35235647660352L240.693208,38.87641388596211L240.80635999999998,37.565848331577286L241.05592,36.77950899894637L241.821872,38.53270539936784L241.8828,41.80962323962075L242.01335999999998,41.55077394377244L242.14392,39.1704643662635L242.370224,37.74227861975808L242.788016,41.33536717185484L242.9708,41.26622030311293L243.04043199999998,41.22473218186775L243.110064,43.42483930912067L243.38859200000002,40.29490358547238L243.44952,40.641942151283416L243.562672,40.850165290770065L243.65841600000002,38.750099174462065L243.745456,37.49005950467725L243.815088,38.95903570280635L244.093616,44.29042142168379L244.53752,40.81425285301029L244.720304,38.728551711806176L245.042352,39.70213102708371L245.346992,38.061278616250235L246.469808,39.30176716975015L248.129416,37.82106030185008L248.83444,36.93263618111007L248.92148,36.39958170866606L249.234824,36.079749025199675L249.330568,38.112849415119825L249.34797600000002,39.33270964907189L249.4002,40.06462578944311L249.80928799999998,40.50377547366588L249.8354,38.542265284199544L249.931144,39.59035917051975L250.218376,40.21921550231184L250.766728,42.82152930138713L250.862472,44.38291758083227L251.193224,47.544750548499366L251.5762,42.76685032909967L251.776392,39.90011019745981L252.57716000000002,40.40506611847587L252.690312,38.48303967108552L252.75994400000002,37.32982380265133L252.829576,38.8628942815908L252.98339199999998,37.55773656895451L252.992096,38.999641941372715L253.56656,39.864785164823616L253.618784,44.83387109889421L253.879904,41.14032265933653L254.167136,38.924193595601935L254.17584,42.044516157361215L254.46307199999998,41.691709694416716L254.65456,39.25502581665003L254.671968,40.018015489990034L254.7416,40.47580929399402L254.87216,45.20048557639643L255.237728,45.81029134583787L255.577184,41.72617480750273L255.585888,43.72570488450165L256.13424,44.92542293070099L256.15164799999997,43.420253758420614L256.299616,40.29215225505237L256.52592,40.640291353031444L257.04816,40.84917481181887L257.100384,38.74950488709132L257.370208,44.16470293225484L257.378912,45.18882175935292L257.500768,43.578293055611766L257.74448,44.83697583336706L258.170976,43.36718550002027L258.942776,41.98445203945306" fill="none"></path></g></g></g></g><g opacity="0.2"><g><g><g><path style="fill: none;" stroke="rgb(255, 112, 67)" stroke-width="2px" d="M34.908888,180.225L35.039448,141.2875L35.06556,163.5375L35.291864,191.35L35.970775999999994,174.6625L36.258008,174.6625L36.379864,157.975L36.519128,174.6625L36.684504000000004,191.35L37.058775999999995,157.975L37.258968,163.5375L37.728984000000004,169.1L37.772504000000005,135.725L37.929176,135.725L38.051032,202.475L38.181592,152.4125L38.32956,135.725L38.573272,146.85L39.162288,152.4125L39.519152,124.6L39.562672,146.85L39.588784000000004,141.2875L41.085871999999995,107.91250000000001L41.27736,163.5375L41.303472000000006,113.47500000000001L41.468848,124.6L41.608112,146.85L41.982384,96.78750000000001L42.15646400000001,141.2875L42.347952,163.5375L42.478512,130.1625L42.696112,113.47500000000001L42.722224000000004,130.1625L42.84408,113.47500000000001L42.948528,113.47500000000001L42.97464,141.2875L43.427248,135.725L43.514288,124.6L43.610032000000004,85.66250000000001L44.045232,119.0375L44.097455999999994,91.22500000000001L44.28024,119.0375L44.419504,102.35000000000001L44.811184000000004,119.0375L45.548168000000004,119.0375L47.114888,74.53750000000001L47.297672,107.91250000000001L48.05492,102.35000000000001L48.211592,80.10000000000001L48.646792,119.0375L48.994952,124.6L49.151624,80.10000000000001L49.325703999999995,68.97500000000001L49.630344,107.91250000000001L49.70868,96.78750000000001L49.726088,102.35000000000001L49.7522,113.47500000000001L49.79572,85.66250000000001L49.961096,107.91250000000001L50.239624,91.22500000000001L50.57908,91.22500000000001L50.935944,107.91250000000001L51.002720000000004,118.39069471359252L51.490144,107.91250000000001L51.864416,68.97500000000001L52.099424,74.53750000000001L52.195168,113.47500000000001L52.586848,85.66250000000001L53.030752,85.66250000000001L53.552992,130.1625L53.727072,85.66250000000001L53.91856,85.66250000000001L54.153568,85.66250000000001L54.432095999999994,68.97500000000001L54.771552,96.78750000000001L55.65936,91.22500000000001L55.676767999999996,91.22500000000001L55.885664,91.22500000000001L55.92048,85.66250000000001L56.042336,74.53750000000001L56.05104,96.78750000000001L56.155488,85.66250000000001L56.44272,91.22500000000001L56.988216,102.35000000000001L57.023032,102.35000000000001L57.171,113.47500000000001L57.258039999999994,74.53750000000001L57.371192,96.78750000000001L57.545272,91.22500000000001L57.553976,74.53750000000001L58.232887999999996,63.41250000000001L58.581047999999996,80.10000000000001L58.65068,107.91250000000001L59.04236,102.35000000000001L59.69516,107.91250000000001L59.729976,96.78750000000001L59.73868,74.53750000000001L59.808312,80.10000000000001L59.947576,102.35000000000001L59.95628,91.22500000000001L60.165175999999995,74.53750000000001L60.635191999999996,80.10000000000001L60.704824,85.66250000000001L60.765752,96.78750000000001L60.809272,96.78750000000001L61.705783999999994,113.47500000000001L61.9582,57.85000000000001L62.140984,85.66250000000001L62.912784,57.85000000000001L63.365392,85.66250000000001L63.739664,74.53750000000001L63.800591999999995,57.85000000000001L64.087824,68.97500000000001L64.348944,41.16250000000002L64.38376,74.53750000000001L65.010448,68.97500000000001L65.698064,96.78750000000001L65.837328,57.85000000000001L66.03752,80.10000000000001L66.22900800000001,52.28750000000001L66.49883200000001,74.53750000000001L66.899216,80.10000000000001L67.395344,68.97500000000001L67.525904,63.41250000000001L67.760912,91.22500000000001L67.961104,46.72500000000002L68.091664,80.10000000000001L68.36148800000001,74.53750000000001L68.63131200000001,52.28750000000001L68.77057599999999,63.41250000000001L69.542376,85.66250000000001L69.63812,68.97500000000001L70.14295200000001,52.28750000000001L70.76964,63.41250000000001L70.90890399999999,41.16250000000002L71.056872,63.41250000000001L71.10909600000001,63.41250000000001L71.12650400000001,63.41250000000001L71.143912,63.41250000000001L71.222248,63.41250000000001L71.38762399999999,57.85000000000001L71.500776,74.53750000000001L71.62263200000001,74.53750000000001L71.68356,68.97500000000001L71.918568,63.41250000000001L71.953384,74.53750000000001L72.066536,68.97500000000001L72.07524000000001,52.28750000000001L72.39728799999999,57.85000000000001L72.710632,57.85000000000001L73.441768,46.72500000000002L73.659368,46.72500000000002L74.02493600000001,52.28750000000001L74.03363999999999,63.41250000000001L74.33828,46.72500000000002L74.608104,63.41250000000001L74.840256,52.28750000000001L74.944704,63.41250000000001L75.005632,63.41250000000001L75.127488,63.41250000000001L75.188416,57.85000000000001L75.397312,46.72500000000002L75.51916800000001,41.16250000000002L75.597504,46.72500000000002L75.623616,57.85000000000001L75.823808,68.97500000000001L75.867328,57.85000000000001L76.23289600000001,63.41250000000001L76.55494399999999,57.85000000000001L76.607168,68.97500000000001L77.120704,63.41250000000001L77.28608,63.41250000000001L77.364416,52.28750000000001L77.42534400000001,41.16250000000002L77.912768,52.28750000000001L78.356672,68.97500000000001L78.791872,63.41250000000001L80.11488,74.53750000000001L80.167104,52.28750000000001L80.32377600000001,63.41250000000001L80.393408,46.72500000000002L80.947608,96.78750000000001L80.999832,57.85000000000001L81.025944,63.41250000000001L81.11298400000001,63.41250000000001L81.14779999999999,68.97500000000001L81.16520799999999,52.28750000000001L81.208728,52.28750000000001L82.14876,57.85000000000001L82.218392,63.41250000000001L82.227096,63.41250000000001L82.36636,57.85000000000001L83.698072,74.53750000000001L83.915672,57.85000000000001L84.751256,46.72500000000002L84.812184,80.10000000000001L85.273496,68.97500000000001L85.58684,63.41250000000001L86.013336,41.16250000000002L86.9244,63.41250000000001L86.93310399999999,68.97500000000001L87.22904,57.85000000000001L87.646832,52.28750000000001L87.681648,46.72500000000002L87.75128,52.28750000000001L88.09944,35.60000000000002L88.116848,52.28750000000001L88.177776,63.41250000000001L88.212592,63.41250000000001L88.612976,52.28750000000001L88.726128,57.85000000000001L88.75224,80.10000000000001L88.90020799999999,63.41250000000001L88.917616,68.97500000000001L89.082992,68.97500000000001L89.613936,41.16250000000002L89.70968,52.28750000000001L89.979504,80.10000000000001L90.01432,63.41250000000001L90.04043200000001,46.72500000000002L90.954352,63.41250000000001L91.05879999999999,52.28750000000001L91.241584,41.16250000000002L91.267696,57.85000000000001L91.32862399999999,63.41250000000001L91.633264,63.41250000000001L92.251248,35.60000000000002L92.753224,63.41250000000001L93.014344,46.72500000000002L93.17101600000001,41.16250000000002L93.466952,46.72500000000002L93.675848,46.72500000000002L93.797704,74.53750000000001L94.26772,46.72500000000002L95.14682400000001,46.72500000000002L95.338312,46.72500000000002L96.06944800000001,57.85000000000001L96.13037600000001,68.97500000000001L96.173896,74.53750000000001L97.018184,63.41250000000001L98.167112,63.41250000000001L98.18451999999999,57.85000000000001L98.210632,52.28750000000001L98.602312,46.72500000000002L99.1304,85.66250000000001L99.670048,68.97500000000001L99.75708800000001,63.41250000000001L99.818016,52.28750000000001L99.87024,41.16250000000002L99.992096,57.85000000000001L100.096544,52.28750000000001L100.157472,63.41250000000001L100.2184,35.60000000000002L100.357664,52.28750000000001L100.679712,46.72500000000002L100.923424,41.16250000000002L101.402144,46.72500000000002L101.750304,46.72500000000002L101.76771199999999,41.16250000000002L101.898272,35.60000000000002L101.941792,52.28750000000001L102.081056,46.72500000000002L102.159392,46.72500000000002L102.376992,41.16250000000002L103.195168,52.28750000000001L103.212576,41.16250000000002L103.96112,52.28750000000001L104.16131200000001,35.60000000000002L104.196128,63.41250000000001L104.291872,52.28750000000001L104.300576,41.16250000000002L104.3528,46.72500000000002L104.611064,46.72500000000002L104.872184,46.72500000000002L105.13330400000001,52.28750000000001L105.27256799999999,52.28750000000001L105.307384,41.16250000000002L106.499832,46.72500000000002L106.69132,68.97500000000001L106.830584,41.16250000000002L107.439864,46.72500000000002L107.64876,52.28750000000001L107.883768,57.85000000000001L108.73676,41.16250000000002L108.77157600000001,52.28750000000001L108.82379999999999,52.28750000000001L109.206776,57.85000000000001L109.946616,52.28750000000001L109.96402400000001,46.72500000000002L110.111992,46.72500000000002L110.251256,52.28750000000001L110.364408,41.16250000000002L110.89249600000001,41.16250000000002L111.01435199999999,46.72500000000002L111.52788799999999,68.97500000000001L111.762896,63.41250000000001L111.789008,63.41250000000001L111.81512,41.16250000000002L111.99790399999999,41.16250000000002L112.215504,46.72500000000002L112.33736,74.53750000000001L112.59848000000001,41.16250000000002L112.650704,63.41250000000001L112.676816,52.28750000000001L113.17294399999999,35.60000000000002L113.46017599999999,46.72500000000002L113.538512,57.85000000000001L113.590736,52.28750000000001L113.66036799999999,52.28750000000001L114.10427200000001,41.16250000000002L114.522064,35.60000000000002L114.71355199999999,46.72500000000002L114.73096,46.72500000000002L115.07041600000001,41.16250000000002L115.157456,46.72500000000002L115.235792,46.72500000000002L115.42728,46.72500000000002L115.51432,52.28750000000001L115.64488,41.16250000000002L115.94952,41.16250000000002L116.097488,41.16250000000002L116.175824,52.28750000000001L116.695208,46.72500000000002L116.747432,52.28750000000001L116.92151199999999,46.72500000000002L117.034664,41.16250000000002L117.348008,41.16250000000002L117.37411999999999,46.72500000000002L117.530792,57.85000000000001L117.757096,52.28750000000001L118.383784,52.28750000000001L118.47082400000001,63.41250000000001L118.73194400000001,41.16250000000002L118.827688,46.72500000000002L118.89732000000001,57.85000000000001L118.966952,57.85000000000001L119.001768,74.53750000000001L119.11492,41.16250000000002L119.23677599999999,63.41250000000001L120.011432,41.16250000000002L120.107176,46.72500000000002L120.42052000000001,68.97500000000001L120.68163999999999,46.72500000000002L120.69904799999999,57.85000000000001L121.047208,52.28750000000001L121.09943200000001,46.72500000000002L121.38666400000001,41.16250000000002L121.499816,46.72500000000002L121.543336,57.85000000000001L121.821864,35.60000000000002L121.90890399999999,63.41250000000001L122.196136,52.28750000000001L122.20483999999999,35.60000000000002L122.48051199999999,52.28750000000001L122.619776,41.16250000000002L122.637184,35.60000000000002L122.785152,52.28750000000001L122.93311999999999,41.16250000000002L122.95052799999999,41.16250000000002L123.15071999999999,35.60000000000002L123.168128,68.97500000000001L123.377024,46.72500000000002L123.385728,52.28750000000001L123.768704,41.16250000000002L123.77740800000001,46.72500000000002L124.00371200000001,46.72500000000002L124.377984,46.72500000000002L124.38668799999999,63.41250000000001L124.41279999999999,35.60000000000002L124.621696,52.28750000000001L124.647808,46.72500000000002L124.856704,52.28750000000001L124.943744,52.28750000000001L125.178752,35.60000000000002L125.744512,46.72500000000002L126.057856,35.60000000000002L126.231936,46.72500000000002L126.440832,41.16250000000002L127.04140799999999,46.72500000000002L127.15456,46.72500000000002L127.95532800000001,41.16250000000002L127.972736,46.72500000000002L127.998848,63.41250000000001L128.085888,35.60000000000002L128.181632,57.85000000000001L128.483416,52.28750000000001L128.61397599999998,35.60000000000002L128.631384,41.16250000000002L128.718424,46.72500000000002L129.031768,41.16250000000002L129.519192,63.41250000000001L129.780312,52.28750000000001L129.980504,52.28750000000001L130.554968,52.28750000000001L130.589784,41.16250000000002L130.920536,46.72500000000002L131.085912,46.72500000000002L131.512408,41.16250000000002L132.260952,46.72500000000002L132.339288,52.28750000000001L132.78319199999999,41.16250000000002L133.06172,57.85000000000001L133.166168,57.85000000000001L133.75804,52.28750000000001L133.914712,41.16250000000002L133.923416,46.72500000000002L134.071384,46.72500000000002L134.114904,52.28750000000001L134.260016,46.72500000000002L134.851888,35.60000000000002L135.017264,41.16250000000002L135.18264,46.72500000000002L135.643952,46.72500000000002L135.79192,41.16250000000002L135.905072,41.16250000000002L136.18359999999998,35.60000000000002L136.322864,52.28750000000001L136.644912,46.72500000000002L136.70584,41.16250000000002L136.766768,46.72500000000002L136.862512,57.85000000000001L136.87121599999998,35.60000000000002L137.341232,46.72500000000002L137.428272,63.41250000000001L137.4892,46.72500000000002L137.497904,41.16250000000002L138.237744,57.85000000000001L138.333488,41.16250000000002L138.542384,35.60000000000002L138.759984,35.60000000000002L138.820912,46.72500000000002L138.864432,41.16250000000002L139.07332799999998,35.60000000000002L139.23,52.28750000000001L139.308336,41.16250000000002L139.386672,35.60000000000002L140.065584,52.28750000000001L140.117808,63.41250000000001L140.376072,41.16250000000002L140.43699999999998,46.72500000000002L140.515336,46.72500000000002L141.04628,46.72500000000002L141.081096,46.72500000000002L141.124616,46.72500000000002L141.333512,57.85000000000001L141.429256,46.72500000000002L141.464072,41.16250000000002L141.69037600000001,52.28750000000001L141.69908,41.16250000000002L141.79482399999998,41.16250000000002L142.24743199999998,46.72500000000002L142.804488,41.16250000000002L142.82189599999998,35.60000000000002L142.908936,63.41250000000001L143.17876,63.41250000000001L143.587848,52.28750000000001L143.78804,41.16250000000002L144.22324,68.97500000000001L144.519176,35.60000000000002L145.058824,52.28750000000001L145.328648,46.72500000000002L145.35476,52.28750000000001L145.87699999999998,35.60000000000002L146.04237600000002,45.60589656829836L146.11200799999997,35.60000000000002L146.48342399999999,41.16250000000002L146.51824,52.28750000000001L146.718432,46.72500000000002L146.74454400000002,52.28750000000001L146.95344,46.72500000000002L146.979552,41.16250000000002L147.08399999999997,35.60000000000002L148.050144,52.28750000000001L148.067552,41.16250000000002L148.241632,46.72500000000002L148.920544,57.85000000000001L149.077216,46.72500000000002L149.877984,52.28750000000001L150.147808,41.16250000000002L150.374112,35.60000000000002L150.73968,46.72500000000002L150.896352,46.72500000000002L150.939872,46.72500000000002L151.09654400000002,52.28750000000001L151.20099199999999,46.72500000000002L151.227104,63.41250000000001L151.688416,41.16250000000002L151.723232,41.16250000000002L152.199096,46.72500000000002L152.373176,41.16250000000002L152.738744,46.72500000000002L152.75615200000001,46.72500000000002L153.008568,35.60000000000002L153.043384,35.60000000000002L153.069496,41.16250000000002L153.130424,52.28750000000001L153.21746399999998,41.16250000000002L153.574328,46.72500000000002L153.757112,41.16250000000002L153.77452,35.60000000000002L153.809336,41.16250000000002L154.348984,46.72500000000002L154.69714399999998,52.28750000000001L154.705848,41.16250000000002L154.84511200000003,57.85000000000001L154.90604000000002,41.16250000000002L155.088824,35.60000000000002L155.34124,52.28750000000001L155.524024,52.28750000000001L155.62847200000002,46.72500000000002L155.941816,41.16250000000002L156.03755999999998,46.72500000000002L156.333496,35.60000000000002L156.90796,46.72500000000002L156.942776,41.16250000000002L157.456312,35.60000000000002L157.56946399999998,41.16250000000002L157.77836,41.16250000000002L157.804472,46.72500000000002L158.396344,46.72500000000002L158.422456,41.16250000000002L158.535608,41.16250000000002L158.92728799999998,35.60000000000002L158.970808,35.60000000000002L158.988216,41.16250000000002L159.01432799999998,41.16250000000002L159.101368,46.72500000000002L159.118776,52.28750000000001L159.632312,41.16250000000002L159.68453599999998,35.60000000000002L159.69324,46.72500000000002L159.788984,46.72500000000002L160.163256,35.60000000000002L160.189368,46.72500000000002L160.598456,35.60000000000002L160.615864,46.72500000000002L161.051064,35.60000000000002L161.12939999999998,41.16250000000002L161.138104,35.60000000000002L161.199032,41.16250000000002L161.320888,35.60000000000002L161.669048,46.72500000000002L161.82572,46.72500000000002L161.88664799999998,52.28750000000001L161.99980000000002,41.16250000000002L162.17388,41.16250000000002L162.287032,41.16250000000002L162.34796,41.16250000000002L162.548152,46.72500000000002L162.55685599999998,41.16250000000002L162.591672,46.72500000000002L162.80927200000002,46.72500000000002L163.052984,46.72500000000002L163.105208,35.60000000000002L163.140024,41.16250000000002L163.253176,35.60000000000002L163.27058399999999,63.41250000000001L163.557816,41.16250000000002L163.65356,41.16250000000002L163.998864,41.16250000000002L164.23387200000002,41.16250000000002L164.46888,41.16250000000002L164.477584,41.16250000000002L164.73,41.16250000000002L165.17390400000002,46.72500000000002L165.417616,41.16250000000002L165.661328,46.72500000000002L165.757072,41.16250000000002L166.009488,52.28750000000001L166.018192,41.16250000000002L166.375056,52.28750000000001L166.80155200000002,52.28750000000001L167.053968,35.60000000000002L167.941776,46.72500000000002L167.95048,41.16250000000002L167.959184,46.72500000000002L168.002704,46.72500000000002L168.09844800000002,46.72500000000002L168.237712,35.60000000000002L168.31604800000002,46.72500000000002L168.333456,35.60000000000002L168.55105600000002,35.60000000000002L168.846992,46.72500000000002L169.247376,41.16250000000002L169.665168,41.16250000000002L169.949544,46.72500000000002L169.97565600000001,46.72500000000002L169.98435999999998,41.16250000000002L170.13232799999997,46.72500000000002L170.236776,57.85000000000001L170.428264,35.60000000000002L170.60234400000002,52.28750000000001L170.74160799999999,35.60000000000002L170.959208,41.16250000000002L171.55108,35.60000000000002L171.751272,57.85000000000001L171.76868,35.60000000000002L171.91664799999998,41.16250000000002L172.830568,46.72500000000002L173.12650399999998,35.60000000000002L173.21354399999998,41.16250000000002L173.68356,35.60000000000002L173.72708,35.60000000000002L174.092648,57.85000000000001L174.153576,35.60000000000002L174.388584,41.16250000000002L174.397288,41.16250000000002L174.72804,35.60000000000002L175.154536,46.72500000000002L175.50269600000001,35.60000000000002L175.520104,41.16250000000002L175.92633600000002,41.16250000000002L175.99596799999998,46.72500000000002L177.005632,35.60000000000002L177.13619200000002,41.16250000000002L177.17100800000003,41.16250000000002L177.29286399999998,35.60000000000002L177.466944,35.60000000000002L178.058816,41.16250000000002L178.084928,35.60000000000002L178.267712,46.72500000000002L178.389568,35.60000000000002L178.41567999999998,46.72500000000002L178.49401600000002,35.60000000000002L178.702912,46.72500000000002L178.79865600000002,52.28750000000001L178.920512,46.72500000000002L178.95532799999998,35.60000000000002L179.120704,46.72500000000002L179.399232,41.16250000000002L179.738688,41.16250000000002L179.79091200000002,41.16250000000002L179.86054399999998,46.72500000000002L180.25222399999998,41.16250000000002L180.54816,52.28750000000001L180.80928,41.16250000000002L180.89632,41.16250000000002L181.192256,46.72500000000002L181.496896,35.60000000000002L181.610048,46.72500000000002L181.662272,41.16250000000002L181.775424,57.85000000000001L182.219328,35.60000000000002L183.03750399999998,46.72500000000002L183.11584000000002,35.60000000000002L183.403072,52.28750000000001L183.716416,52.28750000000001L184.003648,41.16250000000002L184.169024,41.16250000000002L184.229952,46.72500000000002L184.404032,41.16250000000002L184.647744,46.72500000000002L185.13516800000002,52.28750000000001L185.15257599999998,41.16250000000002L185.59647999999999,46.72500000000002L186.34502400000002,46.72500000000002L186.432064,41.16250000000002L186.754112,46.72500000000002L186.81504,41.16250000000002L186.832448,52.28750000000001L187.900184,41.16250000000002L188.431128,41.16250000000002L188.474648,41.16250000000002L188.640024,41.16250000000002L188.744472,41.16250000000002L188.753176,41.16250000000002L188.8054,41.16250000000002L188.970776,46.72500000000002L189.231896,35.60000000000002L189.2406,35.60000000000002L189.275416,41.16250000000002L189.37116,57.85000000000001L189.440792,41.16250000000002L189.815064,41.16250000000002L190.15452000000002,41.16250000000002L190.293784,35.60000000000002L190.598424,46.72500000000002L190.80732,46.72500000000002L191.33826399999998,35.60000000000002L191.608088,35.60000000000002L191.63420000000002,52.28750000000001L192.226072,35.60000000000002L192.27829599999998,41.16250000000002L192.57423200000002,52.28750000000001L192.661272,46.72500000000002L192.80924000000002,41.16250000000002L193.02684000000002,35.60000000000002L193.11388000000002,41.16250000000002L193.279256,52.28750000000001L193.50556,46.72500000000002L193.59844800000002,46.72500000000002L193.78993599999998,46.72500000000002L194.817008,41.16250000000002L195.556848,41.16250000000002L195.835376,41.16250000000002L196.227056,46.72500000000002L196.44465599999998,46.72500000000002L196.67096,41.16250000000002L196.679664,46.72500000000002L196.697072,46.72500000000002L196.723184,41.16250000000002L197.22801600000003,46.72500000000002L197.306352,46.72500000000002L197.880816,41.16250000000002L197.906928,41.16250000000002L197.98526399999997,35.60000000000002L198.420464,41.16250000000002L198.59454399999998,46.72500000000002L198.646768,41.16250000000002L199.04715199999998,41.16250000000002L199.30827200000002,35.60000000000002L199.31697599999998,46.72500000000002L199.39531200000002,41.16250000000002L199.46494399999997,46.72500000000002L199.91469600000002,41.16250000000002L199.98432799999998,35.60000000000002L200.080072,35.60000000000002L200.123592,35.60000000000002L201.19418399999998,46.72500000000002L201.220296,57.85000000000001L201.342152,35.60000000000002L202.15162400000003,41.16250000000002L202.169032,41.16250000000002L202.691272,35.60000000000002L202.743496,41.16250000000002L202.778312,35.60000000000002L203.14388,41.16250000000002L203.378888,35.60000000000002L203.518152,46.72500000000002L203.56167200000002,41.16250000000002L203.59648800000002,46.72500000000002L203.683528,35.60000000000002L203.79668,41.16250000000002L203.84890399999998,46.72500000000002L204.649672,46.72500000000002L204.84116,35.60000000000002L204.95431200000002,41.16250000000002L205.137096,35.60000000000002L205.311176,35.60000000000002L205.447584,35.60000000000002L205.882784,35.60000000000002L206.100384,52.28750000000001L206.77059200000002,41.16250000000002L206.796704,46.72500000000002L206.83152,46.72500000000002L206.96208,41.16250000000002L207.083936,41.16250000000002L207.78025599999998,35.60000000000002L207.91952,41.16250000000002L208.929184,35.60000000000002L209.3992,41.16250000000002L209.721248,41.16250000000002L210.025888,35.60000000000002L210.40016000000003,41.16250000000002L210.626464,35.60000000000002L210.722208,35.60000000000002L210.73091200000002,41.16250000000002L211.044256,35.60000000000002L211.22704,41.16250000000002L211.502712,46.72500000000002L211.624568,35.60000000000002L212.181624,41.16250000000002L212.634232,35.60000000000002L212.921464,41.16250000000002L213.287032,41.16250000000002L213.469816,41.16250000000002L213.687416,46.72500000000002L214.523,46.72500000000002L214.7406,35.60000000000002L214.879864,41.16250000000002L214.993016,46.72500000000002L215.04524,46.72500000000002L215.13228,35.60000000000002L215.23672799999997,35.60000000000002L215.367288,41.16250000000002L215.39339999999999,41.16250000000002L215.732856,35.60000000000002L215.81119199999998,41.16250000000002L215.92434400000002,41.16250000000002L215.967864,35.60000000000002L216.29861599999998,35.60000000000002L216.39436,41.16250000000002L216.577144,41.16250000000002L216.907896,46.72500000000002L217.09938400000001,46.72500000000002L217.34024,46.72500000000002L217.392464,41.16250000000002L217.42728,35.60000000000002L217.53172800000002,41.16250000000002L217.549136,35.60000000000002L218.019152,35.60000000000002L218.358608,52.28750000000001L218.724176,46.72500000000002L218.802512,35.60000000000002L219.01140800000002,41.16250000000002L219.20289599999998,41.16250000000002L219.43790399999997,41.16250000000002L219.69031999999999,41.16250000000002L220.290896,46.72500000000002L220.482384,41.16250000000002L221.152592,35.60000000000002L221.21352000000002,46.72500000000002L221.283152,35.60000000000002L221.570384,41.16250000000002L221.831504,41.16250000000002L221.95336,52.28750000000001L222.04039999999998,41.16250000000002L222.101328,35.60000000000002L222.440784,41.16250000000002L222.919504,35.60000000000002L223.06747199999998,41.16250000000002L223.137104,35.60000000000002L223.14580800000002,46.72500000000002L223.20388,35.60000000000002L223.2474,41.16250000000002L223.926312,41.16250000000002L224.20484000000002,57.85000000000001L224.413736,46.72500000000002L224.500776,35.60000000000002L224.72708,35.60000000000002L225.040424,41.16250000000002L225.397288,41.16250000000002L225.405992,35.60000000000002L225.580072,35.60000000000002L225.841192,46.72500000000002L226.224168,35.60000000000002L226.546216,46.72500000000002L226.67677600000002,35.60000000000002L226.85956000000002,35.60000000000002L227.085864,46.72500000000002L227.172904,35.60000000000002L227.364392,35.60000000000002L227.590696,41.16250000000002L228.878888,41.16250000000002L229.131304,41.16250000000002L229.41567999999998,52.28750000000001L229.67680000000001,41.16250000000002L229.702912,52.28750000000001L229.93792,35.60000000000002L230.216448,46.72500000000002L230.312192,46.72500000000002L230.71257599999998,35.60000000000002L230.747392,41.16250000000002L230.97369600000002,41.16250000000002L230.999808,35.60000000000002L231.2,52.28750000000001L231.234816,41.16250000000002L231.24352000000002,41.16250000000002L231.67872,46.72500000000002L231.8528,35.60000000000002L231.96595200000002,35.60000000000002L232.23577600000002,35.60000000000002L232.836352,41.16250000000002L232.862464,35.60000000000002L232.90598400000002,46.72500000000002L232.966912,52.28750000000001L233.01043199999998,35.60000000000002L233.619712,41.16250000000002L233.706752,35.60000000000002L233.71545600000002,41.16250000000002L233.72416,41.16250000000002L234.977536,41.16250000000002L235.038464,46.72500000000002L235.288024,35.60000000000002L235.401176,41.16250000000002L235.44469600000002,35.60000000000002L235.575256,46.72500000000002L235.81896799999998,35.60000000000002L235.90600799999999,35.60000000000002L236.18453599999998,46.72500000000002L236.34991200000002,41.16250000000002L236.480472,35.60000000000002L236.93308,35.60000000000002L237.098456,41.16250000000002L237.10716000000002,35.60000000000002L237.141976,35.60000000000002L237.32476,52.28750000000001L237.39439199999998,35.60000000000002L237.429208,35.60000000000002L237.707736,46.72500000000002L238.01237600000002,46.72500000000002L238.491096,35.60000000000002L238.813144,35.60000000000002L238.917592,46.72500000000002L239.03944800000002,52.28750000000001L239.28316,35.60000000000002L239.29186399999998,41.16250000000002L239.605208,46.72500000000002L240.057816,35.60000000000002L240.11004,46.72500000000002L240.170968,35.60000000000002L240.310232,41.16250000000002L240.353752,35.60000000000002L240.362456,35.60000000000002L240.693208,41.16250000000002L240.80635999999998,35.60000000000002L241.05592,35.60000000000002L241.821872,41.16250000000002L241.8828,46.72500000000002L242.01335999999998,41.16250000000002L242.14392,35.60000000000002L242.370224,35.60000000000002L242.788016,46.72500000000002L242.9708,41.16250000000002L243.04043199999998,41.16250000000002L243.110064,46.72500000000002L243.38859200000002,35.60000000000002L243.44952,41.16250000000002L243.562672,41.16250000000002L243.65841600000002,35.60000000000002L243.745456,35.60000000000002L243.815088,41.16250000000002L244.093616,52.28750000000001L244.53752,35.60000000000002L244.720304,35.60000000000002L245.042352,41.16250000000002L245.346992,35.60000000000002L246.469808,41.16250000000002L248.129416,35.60000000000002L248.83444,35.60000000000002L248.92148,35.60000000000002L249.234824,35.60000000000002L249.330568,41.16250000000002L249.34797600000002,41.16250000000002L249.4002,41.16250000000002L249.80928799999998,41.16250000000002L249.8354,35.60000000000002L249.931144,41.16250000000002L250.218376,41.16250000000002L250.766728,46.72500000000002L250.862472,46.72500000000002L251.193224,52.28750000000001L251.5762,35.60000000000002L251.776392,35.60000000000002L252.57716000000002,41.16250000000002L252.690312,35.60000000000002L252.75994400000002,35.60000000000002L252.829576,41.16250000000002L252.98339199999998,35.60000000000002L252.992096,41.16250000000002L253.56656,41.16250000000002L253.618784,52.28750000000001L253.879904,35.60000000000002L254.167136,35.60000000000002L254.17584,46.72500000000002L254.46307199999998,41.16250000000002L254.65456,35.60000000000002L254.671968,41.16250000000002L254.7416,41.16250000000002L254.87216,52.28750000000001L255.237728,46.72500000000002L255.577184,35.60000000000002L255.585888,46.72500000000002L256.13424,46.72500000000002L256.15164799999997,41.16250000000002L256.299616,35.60000000000002L256.52592,41.16250000000002L257.04816,41.16250000000002L257.100384,35.60000000000002L257.370208,52.28750000000001L257.378912,46.72500000000002L257.500768,41.16250000000002L257.74448,46.72500000000002L258.170976,41.16250000000002L258.942776,39.91035184860232" fill="none"></path></g></g></g></g></g></g><g transform="translate(58, 178)" clip-path="url(#clip_1)"><clipPath id="clip_1"><rect width="272" height="22"></rect></clipPath><g><g><line x1="0" y1="0" x2="0" y2="5" style="visibility: inherit;" fill="rgb(0, 0, 0)" stroke="rgb(204, 204, 204)" stroke-width="1px"></line><line x1="27.200000000000003" y1="0" x2="27.200000000000003" y2="5" style="visibility: inherit;" fill="rgb(0, 0, 0)" stroke="rgb(204, 204, 204)" stroke-width="1px"></line><line x1="54.400000000000006" y1="0" x2="54.400000000000006" y2="5" style="visibility: inherit;" fill="rgb(0, 0, 0)" stroke="rgb(204, 204, 204)" stroke-width="1px"></line><line x1="81.6" y1="0" x2="81.6" y2="5" style="visibility: inherit;" fill="rgb(0, 0, 0)" stroke="rgb(204, 204, 204)" stroke-width="1px"></line><line x1="108.80000000000001" y1="0" x2="108.80000000000001" y2="5" style="visibility: inherit;" fill="rgb(0, 0, 0)" stroke="rgb(204, 204, 204)" stroke-width="1px"></line><line x1="136" y1="0" x2="136" y2="5" style="visibility: inherit;" fill="rgb(0, 0, 0)" stroke="rgb(204, 204, 204)" stroke-width="1px"></line><line x1="163.2" y1="0" x2="163.2" y2="5" style="visibility: inherit;" fill="rgb(0, 0, 0)" stroke="rgb(204, 204, 204)" stroke-width="1px"></line><line x1="190.39999999999998" y1="0" x2="190.39999999999998" y2="5" style="visibility: inherit;" fill="rgb(0, 0, 0)" stroke="rgb(204, 204, 204)" stroke-width="1px"></line><line x1="217.60000000000002" y1="0" x2="217.60000000000002" y2="5" style="visibility: inherit;" fill="rgb(0, 0, 0)" stroke="rgb(204, 204, 204)" stroke-width="1px"></line><line x1="244.8" y1="0" x2="244.8" y2="5" style="visibility: inherit;" fill="rgb(0, 0, 0)" stroke="rgb(204, 204, 204)" stroke-width="1px"></line><line x1="272" y1="0" x2="272" y2="5" style="visibility: inherit;" fill="rgb(0, 0, 0)" stroke="rgb(204, 204, 204)" stroke-width="1px"></line></g><g transform="translate(0, 8)"><text x="0" y="0" dx="0em" dy="0.95em" style="text-anchor: middle; visibility: hidden; font-family: &quot;Helvetica Neue&quot;, sans-serif; font-size: 12px; font-weight: 200;" fill="rgb(50, 49, 63)" stroke="none" stroke-width="1px">-200k</text><text x="27.200000000000003" y="0" dx="0em" dy="0.95em" style="text-anchor: middle; visibility: inherit; font-family: &quot;Helvetica Neue&quot;, sans-serif; font-size: 12px; font-weight: 200;" fill="rgb(50, 49, 63)" stroke="none" stroke-width="1px">0</text><text x="54.400000000000006" y="0" dx="0em" dy="0.95em" style="text-anchor: middle; visibility: hidden; font-family: &quot;Helvetica Neue&quot;, sans-serif; font-size: 12px; font-weight: 200;" fill="rgb(50, 49, 63)" stroke="none" stroke-width="1px">200k</text><text x="81.6" y="0" dx="0em" dy="0.95em" style="text-anchor: middle; visibility: inherit; font-family: &quot;Helvetica Neue&quot;, sans-serif; font-size: 12px; font-weight: 200;" fill="rgb(50, 49, 63)" stroke="none" stroke-width="1px">400k</text><text x="108.80000000000001" y="0" dx="0em" dy="0.95em" style="text-anchor: middle; visibility: hidden; font-family: &quot;Helvetica Neue&quot;, sans-serif; font-size: 12px; font-weight: 200;" fill="rgb(50, 49, 63)" stroke="none" stroke-width="1px">600k</text><text x="136" y="0" dx="0em" dy="0.95em" style="text-anchor: middle; visibility: inherit; font-family: &quot;Helvetica Neue&quot;, sans-serif; font-size: 12px; font-weight: 200;" fill="rgb(50, 49, 63)" stroke="none" stroke-width="1px">800k</text><text x="163.2" y="0" dx="0em" dy="0.95em" style="text-anchor: middle; visibility: hidden; font-family: &quot;Helvetica Neue&quot;, sans-serif; font-size: 12px; font-weight: 200;" fill="rgb(50, 49, 63)" stroke="none" stroke-width="1px">1M</text><text x="190.39999999999998" y="0" dx="0em" dy="0.95em" style="text-anchor: middle; visibility: inherit; font-family: &quot;Helvetica Neue&quot;, sans-serif; font-size: 12px; font-weight: 200;" fill="rgb(50, 49, 63)" stroke="none" stroke-width="1px">1.2M</text><text x="217.60000000000002" y="0" dx="0em" dy="0.95em" style="text-anchor: middle; visibility: hidden; font-family: &quot;Helvetica Neue&quot;, sans-serif; font-size: 12px; font-weight: 200;" fill="rgb(50, 49, 63)" stroke="none" stroke-width="1px">1.4M</text><text x="244.8" y="0" dx="0em" dy="0.95em" style="text-anchor: middle; visibility: inherit; font-family: &quot;Helvetica Neue&quot;, sans-serif; font-size: 12px; font-weight: 200;" fill="rgb(50, 49, 63)" stroke="none" stroke-width="1px">1.6M</text><text x="272" y="0" dx="0em" dy="0.95em" style="text-anchor: middle; visibility: hidden; font-family: &quot;Helvetica Neue&quot;, sans-serif; font-size: 12px; font-weight: 200;" fill="rgb(50, 49, 63)" stroke="none" stroke-width="1px">1.8M</text></g><line x1="0" y1="0" x2="272" y2="0" fill="rgb(0, 0, 0)" stroke="rgb(204, 204, 204)" stroke-width="1px"></line></g></g></g></g></svg>