<svg viewBox="0 0 330 200" xmlns="http://www.w3.org/2000/svg"><g><g><g><g><g><line x1="58" y1="178" x2="53" y2="178" style="visibility: inherit;" fill="rgb(0, 0, 0)" stroke="rgb(204, 204, 204)" stroke-width="1px"></line><line x1="58" y1="155.75" x2="53" y2="155.75" style="visibility: inherit;" fill="rgb(0, 0, 0)" stroke="rgb(204, 204, 204)" stroke-width="1px"></line><line x1="58" y1="133.5" x2="53" y2="133.5" style="visibility: inherit;" fill="rgb(0, 0, 0)" stroke="rgb(204, 204, 204)" stroke-width="1px"></line><line x1="58" y1="111.24999999999999" x2="53" y2="111.24999999999999" style="visibility: inherit;" fill="rgb(0, 0, 0)" stroke="rgb(204, 204, 204)" stroke-width="1px"></line><line x1="58" y1="88.99999999999999" x2="53" y2="88.99999999999999" style="visibility: inherit;" fill="rgb(0, 0, 0)" stroke="rgb(204, 204, 204)" stroke-width="1px"></line><line x1="58" y1="66.75" x2="53" y2="66.75" style="visibility: inherit;" fill="rgb(0, 0, 0)" stroke="rgb(204, 204, 204)" stroke-width="1px"></line><line x1="58" y1="44.5" x2="53" y2="44.5" style="visibility: inherit;" fill="rgb(0, 0, 0)" stroke="rgb(204, 204, 204)" stroke-width="1px"></line><line x1="58" y1="22.25" x2="53" y2="22.25" style="visibility: inherit;" fill="rgb(0, 0, 0)" stroke="rgb(204, 204, 204)" stroke-width="1px"></line><line x1="58" y1="0" x2="53" y2="0" style="visibility: inherit;" fill="rgb(0, 0, 0)" stroke="rgb(204, 204, 204)" stroke-width="1px"></line></g><g transform="translate(48, 0)"><text x="0" y="178" dx="0em" dy="0.3em" style="text-anchor: end; visibility: hidden; font-family: &quot;Helvetica Neue&quot;, sans-serif; font-size: 12px; font-weight: 200;" fill="rgb(50, 49, 63)" stroke="none" stroke-width="1px">-0.2</text><text x="0" y="155.75" dx="0em" dy="0.3em" style="text-anchor: end; visibility: inherit; font-family: &quot;Helvetica Neue&quot;, sans-serif; font-size: 12px; font-weight: 200;" fill="rgb(50, 49, 63)" stroke="none" stroke-width="1px">0</text><text x="0" y="133.5" dx="0em" dy="0.3em" style="text-anchor: end; visibility: hidden; font-family: &quot;Helvetica Neue&quot;, sans-serif; font-size: 12px; font-weight: 200;" fill="rgb(50, 49, 63)" stroke="none" stroke-width="1px">0.2</text><text x="0" y="111.24999999999999" dx="0em" dy="0.3em" style="text-anchor: end; visibility: inherit; font-family: &quot;Helvetica Neue&quot;, sans-serif; font-size: 12px; font-weight: 200;" fill="rgb(50, 49, 63)" stroke="none" stroke-width="1px">0.4</text><text x="0" y="88.99999999999999" dx="0em" dy="0.3em" style="text-anchor: end; visibility: hidden; font-family: &quot;Helvetica Neue&quot;, sans-serif; font-size: 12px; font-weight: 200;" fill="rgb(50, 49, 63)" stroke="none" stroke-width="1px">0.6</text><text x="0" y="66.75" dx="0em" dy="0.3em" style="text-anchor: end; visibility: inherit; font-family: &quot;Helvetica Neue&quot;, sans-serif; font-size: 12px; font-weight: 200;" fill="rgb(50, 49, 63)" stroke="none" stroke-width="1px">0.8</text><text x="0" y="44.5" dx="0em" dy="0.3em" style="text-anchor: end; visibility: hidden; font-family: &quot;Helvetica Neue&quot;, sans-serif; font-size: 12px; font-weight: 200;" fill="rgb(50, 49, 63)" stroke="none" stroke-width="1px">1</text><text x="0" y="22.25" dx="0em" dy="0.3em" style="text-anchor: end; visibility: inherit; font-family: &quot;Helvetica Neue&quot;, sans-serif; font-size: 12px; font-weight: 200;" fill="rgb(50, 49, 63)" stroke="none" stroke-width="1px">1.2</text><text x="0" y="0" dx="0em" dy="0.3em" style="text-anchor: end; visibility: hidden; font-family: &quot;Helvetica Neue&quot;, sans-serif; font-size: 12px; font-weight: 200;" fill="rgb(50, 49, 63)" stroke="none" stroke-width="1px">1.4</text></g><line x1="58" y1="0" x2="58" y2="178" fill="rgb(0, 0, 0)" stroke="rgb(204, 204, 204)" stroke-width="1px"></line></g></g><g transform="translate(58, 0)" clip-path="url(#clip_0)"><clipPath id="clip_0"><rect width="272" height="178"></rect></clipPath><g><g><g><line x1="0" y1="0" x2="0" y2="178" fill="rgb(0, 0, 0)" stroke="rgb(60, 60, 60)" stroke-width="1px" opacity="0.25"></line><line x1="27.200000000000003" y1="0" x2="27.200000000000003" y2="178" fill="rgb(0, 0, 0)" stroke="rgb(60, 60, 60)" stroke-width="1px" opacity="0.25"></line><line x1="54.400000000000006" y1="0" x2="54.400000000000006" y2="178" fill="rgb(0, 0, 0)" stroke="rgb(60, 60, 60)" stroke-width="1px" opacity="0.25"></line><line x1="81.6" y1="0" x2="81.6" y2="178" fill="rgb(0, 0, 0)" stroke="rgb(60, 60, 60)" stroke-width="1px" opacity="0.25"></line><line x1="108.80000000000001" y1="0" x2="108.80000000000001" y2="178" fill="rgb(0, 0, 0)" stroke="rgb(60, 60, 60)" stroke-width="1px" opacity="0.25"></line><line x1="136" y1="0" x2="136" y2="178" fill="rgb(0, 0, 0)" stroke="rgb(60, 60, 60)" stroke-width="1px" opacity="0.25"></line><line x1="163.2" y1="0" x2="163.2" y2="178" fill="rgb(0, 0, 0)" stroke="rgb(60, 60, 60)" stroke-width="1px" opacity="0.25"></line><line x1="190.39999999999998" y1="0" x2="190.39999999999998" y2="178" fill="rgb(0, 0, 0)" stroke="rgb(60, 60, 60)" stroke-width="1px" opacity="0.25"></line><line x1="217.60000000000002" y1="0" x2="217.60000000000002" y2="178" fill="rgb(0, 0, 0)" stroke="rgb(60, 60, 60)" stroke-width="1px" opacity="0.25"></line><line x1="244.8" y1="0" x2="244.8" y2="178" fill="rgb(0, 0, 0)" stroke="rgb(60, 60, 60)" stroke-width="1px" opacity="0.25"></line><line x1="272" y1="0" x2="272" y2="178" fill="rgb(0, 0, 0)" stroke="rgb(60, 60, 60)" stroke-width="1px" opacity="0.25"></line></g><g><line x1="0" y1="178" x2="272" y2="178" fill="rgb(0, 0, 0)" stroke="rgb(60, 60, 60)" stroke-width="1px" opacity="0.25"></line><line x1="0" y1="155.75" x2="272" y2="155.75" fill="rgb(0, 0, 0)" stroke="rgb(60, 60, 60)" stroke-width="1px" opacity="0.25"></line><line x1="0" y1="133.5" x2="272" y2="133.5" fill="rgb(0, 0, 0)" stroke="rgb(60, 60, 60)" stroke-width="1px" opacity="0.25"></line><line x1="0" y1="111.24999999999999" x2="272" y2="111.24999999999999" fill="rgb(0, 0, 0)" stroke="rgb(60, 60, 60)" stroke-width="1px" opacity="0.25"></line><line x1="0" y1="88.99999999999999" x2="272" y2="88.99999999999999" fill="rgb(0, 0, 0)" stroke="rgb(60, 60, 60)" stroke-width="1px" opacity="0.25"></line><line x1="0" y1="66.75" x2="272" y2="66.75" fill="rgb(0, 0, 0)" stroke="rgb(60, 60, 60)" stroke-width="1px" opacity="0.25"></line><line x1="0" y1="44.5" x2="272" y2="44.5" fill="rgb(0, 0, 0)" stroke="rgb(60, 60, 60)" stroke-width="1px" opacity="0.25"></line><line x1="0" y1="22.25" x2="272" y2="22.25" fill="rgb(0, 0, 0)" stroke="rgb(60, 60, 60)" stroke-width="1px" opacity="0.25"></line><line x1="0" y1="0" x2="272" y2="0" fill="rgb(0, 0, 0)" stroke="rgb(60, 60, 60)" stroke-width="1px" opacity="0.25"></line></g></g></g><g><g><line x1="0" y1="155.75" x2="272" y2="155.75" fill="rgb(0, 0, 0)" stroke="rgb(153, 153, 153)" stroke-width="1.5px"></line></g></g><g><g><line x1="27.200000000000003" y1="0" x2="27.200000000000003" y2="178" fill="rgb(0, 0, 0)" stroke="rgb(153, 153, 153)" stroke-width="1.5px"></line></g></g><g><g><g><g><g><path style="fill: none;" stroke="rgb(255, 112, 67)" stroke-width="2px" d="M34.908888,-18.846144731873096L35.039448,5.406815872061742L35.06556,19.991285703376178L35.291864,5.160989836670296L35.970775999999994,13.648558422835094L36.258008,14.04974540796951L36.379864,11.519329181449251L36.519128,17.06762666334174L36.684504000000004,-0.7430337529671363L37.058775999999995,13.670294533004949L37.258968,24.46360047516822L37.728984000000004,19.82887520687879L37.772504000000005,28.402367128905013L37.929176,35.525088712058846L38.051032,17.851249864246086L38.181592,29.236840945862696L38.32956,32.776733948230884L38.573272,39.328883942043376L39.162288,35.694884083312274L39.519152,42.98338243463587L39.562672,46.417282802457635L39.588784000000004,45.92087272560286L41.085871999999995,57.072543333506246L41.27736,45.12393803032279L41.303472000000006,53.333534947825115L41.468848,56.94024594533015L41.608112,53.26963031236862L41.982384,57.879797768262264L42.15646400000001,52.94372828702163L42.347952,37.50849163472665L42.478512,45.428027534127324L42.696112,57.6566978714705L42.722224000000004,57.24545092712884L42.84408,58.81361734468369L42.948528,66.7878217971243L42.97464,62.10851760363087L43.427248,55.9612579921216L43.514288,64.80473608251395L43.610032000000004,74.02833478734483L44.045232,71.48768478682987L44.097455999999994,80.72965492040727L44.28024,71.66316352624185L44.419504,75.005018564096L44.811184000000004,71.6637152028268L45.548168000000004,72.98744630170974L47.114888,85.75572564812369L47.297672,77.05622173912445L48.05492,85.9404612217374L48.211592,90.17168578112287L48.646792,79.64029398324587L48.994952,80.46266871549187L49.151624,87.8977044573873L49.325703999999995,102.20017060348093L49.630344,98.51595892136514L49.70868,98.57810945287478L49.726088,95.64469631895501L49.7522,92.83535900345491L49.79572,97.56835270304111L49.961096,95.85275182949678L50.239624,103.68978345589147L50.57908,100.79914744017304L50.935944,91.60903098176588L51.002720000000004,83.0435422658364L51.490144,87.02411710616589L51.864416,100.25238797006989L52.099424,104.4764068301796L52.195168,95.25020071126693L52.586848,101.3426266536574L53.030752,101.31402061733368L53.552992,90.75154843540648L53.727072,98.89609691865239L53.91856,106.69381715576048L54.153568,107.32562333774682L54.432095999999994,110.06568055410455L54.771552,110.18959938919107L55.65936,107.06529410145022L55.676767999999996,110.25878773308597L55.885664,105.56910085187435L55.92048,98.74899021092699L56.042336,103.62384086432247L56.05104,99.46826829661244L56.155488,102.62220495730229L56.44272,102.33474221402162L56.988216,101.95840324207397L57.023032,98.08379139449747L57.171,96.61422916618913L57.258039999999994,105.53069699625927L57.371192,104.60895146024679L57.545272,96.45481209810052L57.553976,103.87261476430578L58.232887999999996,109.74747961350252L58.581047999999996,109.50633644216042L58.65068,101.26844687552918L59.04236,107.06631574804585L59.69516,100.92206580504775L59.729976,101.76682377496361L59.73868,109.49330411934257L59.808312,110.66523141016602L59.947576,103.97911163777135L59.95628,108.10655659800781L60.165175999999995,111.53711017588385L60.635191999999996,107.40212574374442L60.704824,111.41791483921864L60.765752,108.55140657224094L60.809272,105.1695049047341L61.705783999999994,98.33923459290683L61.9582,109.34681497954857L62.140984,109.58252229358871L62.912784,117.00300206879449L63.365392,113.51537813627523L63.739664,112.24258046080948L63.800591999999995,118.26674876350332L64.087824,116.69884095035891L64.348944,125.97267954762519L64.38376,120.58135412463987L65.010448,124.80674777376319L65.698064,116.4302619960765L65.837328,124.06672666769384L66.03752,123.36115473986362L66.22900800000001,128.04004608083187L66.49883200000001,128.81736473881256L66.899216,125.16624134566217L67.395344,119.21196135750907L67.525904,122.21419764084516L67.760912,116.1569039852792L67.961104,124.97422979065024L68.091664,120.763595752646L68.36148800000001,121.02208321257201L68.63131200000001,128.73392479398112L68.77057599999999,126.80682936178601L69.542376,122.16917691747518L69.63812,125.61799390536649L70.14295200000001,128.57924470408022L70.76964,129.77978370102204L70.90890399999999,137.46553097746943L71.056872,134.03294632632836L71.10909600000001,126.24167530417027L71.12650400000001,123.84351844596614L71.143912,125.91789083485453L71.222248,120.58965420606523L71.38762399999999,123.6948437922167L71.500776,121.84053264456792L71.62263200000001,125.22347690402151L71.68356,124.08256843530347L71.918568,122.18057663943296L71.953384,120.2859004569407L72.066536,120.8056394328091L72.07524000000001,128.6553958576568L72.39728799999999,131.4749802542715L72.710632,133.5199989717L73.441768,136.60902953987082L73.659368,134.19699398335672L74.02493600000001,133.35531378183873L74.03363999999999,128.90412527259656L74.33828,130.1824962776093L74.608104,132.14246664084123L74.840256,134.53089910231307L74.944704,133.75348196466135L75.005632,136.14438320868828L75.127488,133.6290016840316L75.188416,128.4267168563853L75.397312,131.77292271687094L75.51916800000001,135.45952484597862L75.597504,136.3373222416049L75.623616,137.38687624129093L75.823808,134.47718012388012L75.867328,135.58974709245837L76.23289600000001,130.86572560151384L76.55494399999999,132.02398447978476L76.607168,132.14735743724094L77.120704,131.5041545276212L77.28608,128.55565183129116L77.364416,132.38844044218183L77.42534400000001,138.22059315195514L77.912768,140.3717954292943L78.356672,136.66202066153585L78.791872,131.97596106416165L80.11488,127.24354653946267L80.167104,132.7640964680416L80.32377600000001,134.73226495942487L80.393408,137.53575993395458L80.947608,124.10854685793285L80.999832,129.3097480251787L81.025944,130.08610458906875L81.11298400000001,133.70891575358144L81.14779999999999,129.33693618978162L81.16520799999999,130.4375344851917L81.208728,132.18688809956944L82.14876,129.8744746570935L82.218392,129.79655027837455L82.227096,130.59381798476517L82.36636,128.478627494398L83.698072,126.24260486449197L83.915672,130.39986469170685L84.751256,132.83788545919202L84.812184,125.87349790032351L85.273496,127.46357009229447L85.58684,130.2596282939159L86.013336,134.70638176977891L86.9244,131.78121500718748L86.93310399999999,132.0747715473661L87.22904,132.5033124709421L87.646832,130.22138756360374L87.681648,133.6967473467932L87.75128,137.93197258432184L88.09944,142.65981877740904L88.116848,138.73010274259258L88.177776,135.89587369256026L88.212592,137.10897053297046L88.612976,132.25153385410118L88.726128,134.79268317258007L88.75224,128.2173437943199L88.90020799999999,129.0114511621081L88.917616,131.53148353827495L89.082992,131.52328137297928L89.613936,136.34075041407047L89.70968,139.73663400884686L89.979504,129.51489692495L90.01432,130.68213064113695L90.04043200000001,134.51726546370648L90.954352,133.7597010343293L91.05879999999999,132.18388330841182L91.241584,137.46380005719732L91.267696,138.02017456258815L91.32862399999999,134.29854635277678L91.633264,132.61830180513437L92.251248,137.2769387558256L92.753224,134.74594472617832L93.014344,134.78996795726374L93.17101600000001,137.68381720967625L93.466952,140.0626185711475L93.675848,137.0041246549041L93.797704,131.201836877212L94.26772,135.8529407341153L95.14682400000001,140.09091263168278L95.338312,141.47328375669255L96.06944800000001,138.53822120661695L96.13037600000001,136.11007023832298L96.173896,131.23289857495485L97.018184,130.37770148181113L98.167112,134.008848661561L98.18451999999999,136.86635481529186L98.210632,137.16982787974328L98.602312,138.70210939870864L99.1304,132.5157570375597L99.670048,133.69723015031786L99.75708800000001,131.36403562725528L99.818016,136.7176493151542L99.87024,141.80729741266708L99.992096,138.85111200011573L100.096544,139.83917744575024L100.157472,137.43106587748576L100.2184,143.80390059848636L100.357664,137.70393328309063L100.679712,140.51130485945941L100.923424,143.04963797950148L101.402144,143.78885001613736L101.750304,141.38810671820664L101.76771199999999,144.67212952944294L101.898272,145.81275701238306L101.941792,144.33103496708628L102.081056,140.93774323390815L102.159392,141.1917745708042L102.376992,143.55691524974188L103.195168,143.57589164007712L103.212576,145.6690748989821L103.96112,142.73438949944023L104.16131200000001,145.71281996033457L104.196128,143.03297637201467L104.291872,137.53165813563538L104.300576,142.39855342151685L104.3528,143.488786264014L104.611064,146.12185493968533L104.872184,144.07578574188116L105.13330400000001,142.58266947905759L105.27256799999999,141.6068860232266L105.307384,144.27643883314326L106.499832,145.05860536448117L106.69132,139.68255395979855L106.830584,141.84367597574695L107.439864,143.38317569181146L107.64876,143.4641618189801L107.883768,140.76792800173695L108.73676,144.10662438643297L108.77157600000001,143.4897110040326L108.82379999999999,143.0024555720591L109.206776,141.27369047389647L109.946616,141.9611499149276L109.96402400000001,143.11153440482457L110.111992,143.24277735088492L110.251256,140.44520953645838L110.364408,142.75380106926283L110.89249600000001,143.35319443142606L111.01435199999999,144.95271453467723L111.52788799999999,139.2486964074237L111.762896,139.53951167061703L111.789008,134.6796845197366L111.81512,140.9700746930949L111.99790399999999,143.2070136642344L112.215504,144.25706119840663L112.33736,139.66961146596265L112.59848000000001,143.6544134383094L112.650704,141.34578928886006L112.676816,142.62608989946932L113.17294399999999,145.40881890280775L113.46017599999999,143.35273335113368L113.538512,137.94184120139028L113.590736,140.16843936750615L113.66036799999999,139.28387334143713L114.10427200000001,142.9983262200391L114.522064,146.1169775369308L114.71355199999999,145.83076902285464L114.73096,144.55253046262413L115.07041600000001,146.69051043023555L115.157456,140.09141696143084L115.235792,139.98904560147483L115.42728,142.1580445037112L115.51432,139.5955261925355L115.64488,141.02859631639691L115.94952,143.3711917532204L116.097488,145.9705979307126L116.175824,143.5132353591699L116.695208,143.71195164771547L116.747432,144.06307139144343L116.92151199999999,143.91067385239006L117.034664,146.10256791897177L117.348008,146.67102800332046L117.37411999999999,146.92398016242706L117.530792,142.63638621621442L117.757096,142.0659612435288L118.383784,139.54290742386502L118.47082400000001,139.8600009692259L118.73194400000001,144.19294683672769L118.827688,144.77198412068356L118.89732000000001,143.63322887151045L118.966952,138.92337171035172L119.001768,132.2134878980944L119.11492,137.42525818484006L119.23677599999999,133.39267698250399L120.011432,138.75720983935705L120.107176,137.65419158603734L120.42052000000001,137.15799624482386L120.68163999999999,139.0151830927109L120.69904799999999,139.64504571798892L121.047208,136.9284202980605L121.09943200000001,139.65157922000333L121.38666400000001,143.0715445660987L121.499816,143.83503632446758L121.543336,141.32815977752585L121.821864,146.00080521260426L121.90890399999999,144.32351159664825L122.196136,144.18983525030515L122.20483999999999,146.71938858512164L122.48051199999999,144.70466508020831L122.619776,145.86295475244447L122.637184,148.99538213773772L122.785152,145.21059896209363L122.93311999999999,146.55714960341766L122.95052799999999,147.102859083981L123.15071999999999,148.72318350548784L123.168128,142.89870238319182L123.377024,144.6253107652971L123.385728,144.28711627220562L123.768704,145.90624349814922L123.77740800000001,145.38020450176163L124.00371200000001,145.38496995002845L124.377984,139.1688943700839L124.38668799999999,137.08600831609064L124.41279999999999,143.44861443128343L124.621696,143.71340582243297L124.647808,141.2131898997527L124.856704,143.0356307445944L124.943744,142.55147160106782L125.178752,146.07493867137364L125.744512,144.8378827581306L126.057856,147.1071814907789L126.231936,147.0303731799543L126.440832,147.53414237889172L127.04140799999999,146.69102406810237L127.15456,146.6344409357638L127.95532800000001,148.07067267424645L127.972736,147.20698071465958L127.998848,144.03974000183385L128.085888,146.67112325321222L128.181632,142.02012293154348L128.483416,140.27937315770595L128.61397599999998,144.64838422980077L128.631384,147.41085514438848L128.718424,147.27406413786233L129.031768,147.36439563740862L129.519192,142.48306976800902L129.780312,143.70852300924506L129.980504,138.4318065115955L130.554968,137.32391954327505L130.589784,141.18999565088677L130.920536,143.2319393080111L131.085912,145.3876533208272L131.512408,146.15057154509313L132.260952,145.8437549778097L132.339288,140.96545855005223L132.78319199999999,141.8735305461266L133.06172,138.92215757328142L133.166168,135.6913390711419L133.75804,139.6006706732793L133.914712,141.8148210005929L133.923416,143.8813619260174L134.071384,146.13757434080134L134.114904,144.21602546030337L134.260016,144.86906613769563L134.851888,148.2131929255273L135.017264,148.9504181284753L135.18264,146.7511624091296L135.643952,145.56127187868526L135.79192,148.65732788915528L135.905072,146.5963769949978L136.18359999999998,148.71990476459297L136.322864,146.34266134670395L136.644912,146.7617650490762L136.70584,148.79898991580373L136.766768,148.66294779640774L136.862512,146.22397750995958L136.87121599999998,148.84434238509033L137.341232,147.4506057482105L137.428272,141.356719455489L137.4892,143.15550167940168L137.497904,146.14099768225617L138.237744,142.76755980655113L138.333488,145.58183567973708L138.542384,147.82211538927396L138.759984,150.25997344085062L138.820912,147.01703117894223L138.864432,146.97925700385625L139.07332799999998,148.26890054949675L139.23,146.03463866402836L139.308336,148.06486638540107L139.386672,150.1149840056767L140.065584,145.94926704167543L140.117808,142.56134825765622L140.376072,145.09311504405457L140.43699999999998,145.74563782806229L140.515336,145.20896365878005L141.04628,144.69807066701065L141.081096,145.66686804179676L141.124616,145.62829460551933L141.333512,143.6608721172845L141.429256,143.23508833906266L141.464072,146.6358940560294L141.69037600000001,146.27978713042575L141.69908,146.76473805294654L141.79482399999998,147.75472519240512L142.24743199999998,145.8475573126479L142.804488,147.43188432799303L142.82189599999998,148.53390842458023L142.908936,139.27086755800494L143.17876,137.6663935447827L143.587848,139.6311180183348L143.78804,138.97315112138133L144.22324,135.61987589528763L144.519176,142.66756521898867L145.058824,140.6494056298635L145.328648,143.00502079214465L145.35476,143.91404602966196L145.87699999999998,146.8094848814099L146.04237600000002,146.57912228763038L146.11200799999997,149.15612356407902L146.48342399999999,149.0600514161197L146.51824,143.0198219446902L146.718432,144.93255936077622L146.74454400000002,142.04423347694507L146.95344,144.2301121396293L146.979552,145.70755400687275L147.08399999999997,147.82574374708426L148.050144,145.8467071040445L148.067552,147.98276479483982L148.241632,147.45014013538565L148.920544,144.90403868073108L149.077216,145.95916479268004L149.877984,143.84667859189707L150.147808,147.37837006222753L150.374112,150.0716316564548L150.73968,149.58764134950445L150.896352,148.02879334379438L150.939872,146.10638807424428L151.09654400000002,144.6471920465441L151.20099199999999,145.29655596792765L151.227104,140.36050506192487L151.688416,144.32740756389822L151.723232,146.17861822406843L152.199096,146.55652377403018L152.373176,148.83246446115515L152.738744,146.9468705465659L152.75615200000001,147.19961063028958L153.008568,149.05473171300642L153.043384,150.5803351648268L153.069496,150.37850204505725L153.130424,149.13064671396137L153.21746399999998,149.5876613998498L153.574328,147.53418424243242L153.757112,149.6186707575739L153.77452,150.87509600950006L153.809336,150.50220962655678L154.348984,148.3594305547603L154.69714399999998,145.59049418762493L154.705848,146.95516933393577L154.84511200000003,144.4770670526749L154.90604000000002,147.19321662298L155.088824,149.78854021943303L155.34124,148.81816950524862L155.524024,147.98071625879416L155.62847200000002,147.05897772193555L155.941816,148.0562525522298L156.03755999999998,148.08934266979017L156.333496,150.5372066769124L156.90796,149.87106244776373L156.942776,149.6280608677192L157.456312,151.459926302836L157.56946399999998,151.3406597729657L157.77836,151.1720287326654L157.804472,148.82420030302885L158.396344,147.55550290684153L158.422456,148.90103208893686L158.535608,149.83277366458861L158.92728799999998,151.73586303829842L158.970808,150.74367809870657L158.988216,151.10301604690443L159.01432799999998,150.58122754140072L159.101368,149.9652718077205L159.118776,145.5394321602644L159.632312,146.44619709459312L159.68453599999998,149.98372660663645L159.69324,148.46426264695478L159.788984,148.22408976332636L160.163256,149.51843127340848L160.189368,148.86201080072388L160.598456,150.0626116880087L160.615864,149.48687103768037L161.051064,150.2235081181219L161.12939999999998,150.5143363399977L161.138104,151.6764707473248L161.199032,149.90054469375787L161.320888,151.08709362432495L161.669048,148.7874435389646L161.82572,144.84712848392775L161.88664799999998,141.50571723179607L161.99980000000002,145.0801860758459L162.17388,147.22955086939308L162.287032,148.8751895311491L162.34796,147.70441168594456L162.548152,146.4372025030738L162.55685599999998,148.08336977797066L162.591672,147.98783122829983L162.80927200000002,147.7507966039025L163.052984,144.04435029342432L163.105208,146.86752771565114L163.140024,144.76926776456116L163.253176,148.76145447548345L163.27058399999999,137.8225994304187L163.557816,143.08072153451246L163.65356,146.13498470096113L163.998864,146.1018135408063L164.23387200000002,148.96577168424423L164.46888,150.33170471553203L164.477584,150.6202459176731L164.73,150.64343771429967L165.17390400000002,149.7533731369204L165.417616,150.86994216080168L165.661328,150.0209237008432L165.757072,150.85215136299368L166.009488,148.03805620455645L166.018192,145.94083837186636L166.375056,145.21984680825676L166.80155200000002,145.15710345929386L167.053968,148.3910460222171L167.941776,147.25878366073408L167.95048,148.80966196203494L167.959184,148.56073364388504L168.002704,148.86329436836576L168.09844800000002,145.919586532044L168.237712,149.1084900399164L168.31604800000002,144.13960050494168L168.333456,147.55851178270245L168.55105600000002,149.7796004760737L168.846992,148.29247209718673L169.247376,149.44312595041603L169.665168,145.39981694198852L169.949544,147.12074921348514L169.97565600000001,148.15032395575238L169.98435999999998,149.9083793018612L170.13232799999997,148.1018178033443L170.236776,144.93348511562417L170.428264,148.54499725181262L170.60234400000002,146.84059462355614L170.74160799999999,149.55428927410867L170.959208,148.55715325709716L171.55108,149.06188740312479L171.751272,146.02757638382568L171.76868,148.30547400526794L171.91664799999998,148.18091647677178L172.830568,146.46773796068163L173.12650399999998,149.4105348943116L173.21354399999998,150.4944089302237L173.68356,151.5166140320936L173.72708,152.27784059520297L174.092648,149.2834557522877L174.153576,151.0030109870162L174.388584,150.60163652451195L174.397288,150.767888140612L174.72804,150.87742002572605L175.154536,146.82752965996258L175.50269600000001,149.21879020845648L175.520104,148.84338771859262L175.92633600000002,148.82131659871015L175.99596799999998,146.5208936893086L177.005632,148.7633546941364L177.13619200000002,148.8934954007944L177.17100800000003,150.21548545661452L177.29286399999998,150.81063223959734L177.466944,151.80603855748015L178.058816,151.44847246832572L178.084928,152.27903459714008L178.267712,149.93328834918827L178.389568,151.50090469273295L178.41567999999998,150.12542472095706L178.49401600000002,151.9762242002348L178.702912,149.94118155318858L178.79865600000002,146.2281920270822L178.920512,145.11470088700662L178.95532799999998,148.32187532724564L179.120704,148.46841087097897L179.399232,150.11904285679742L179.738688,149.96330534640242L179.79091200000002,150.50040340295905L179.86054399999998,148.7930789299099L180.25222399999998,149.7800916046523L180.54816,148.99288145665068L180.80928,150.36162276488537L180.89632,150.74600215954777L181.192256,148.60882567884443L181.496896,150.09573490949373L181.610048,149.78428252879917L181.662272,148.6753552934178L181.775424,145.5212643194585L182.219328,148.0568990985834L183.03750399999998,146.4891069340875L183.11584000000002,149.72529386451737L183.403072,147.6478930292779L183.716416,145.13517368008218L184.003648,142.68793495696497L184.169024,146.05357705921955L184.229952,147.50966723000124L184.404032,149.5627687570683L184.647744,146.31619390083742L185.13516800000002,146.53764711608522L185.15257599999998,148.62272750461122L185.59647999999999,147.4192684240581L186.34502400000002,146.11845441296347L186.432064,148.03589263936666L186.754112,147.42053007635943L186.81504,148.13526262970848L186.832448,147.0904793776994L187.900184,148.75841997491867L188.431128,147.38666324199767L188.474648,149.3370966025086L188.640024,149.1288441655273L188.744472,148.87794350309582L188.753176,149.05950531124122L188.8054,150.29361635787217L188.970776,149.18949675689893L189.231896,150.81334220695948L189.2406,151.22794425310764L189.275416,151.80320016710206L189.37116,146.00663142006542L189.440792,148.73782603577342L189.815064,150.67588820258865L190.15452000000002,148.7676771116262L190.293784,150.80901384134623L190.598424,149.2123956771465L190.80732,148.78711026708913L191.33826399999998,150.49637905389446L191.608088,152.40508107876818L191.63420000000002,148.94090081176782L192.226072,150.95397076355144L192.27829599999998,149.98773103563025L192.57423200000002,144.26756467585585L192.661272,146.11143730083L192.80924000000002,146.7582237906688L193.02684000000002,149.73686839472106L193.11388000000002,151.13374862197549L193.279256,148.5167440466494L193.50556,146.8440589378721L193.59844800000002,148.39359984892286L193.78993599999998,148.99223076759384L194.817008,149.08250318927233L195.556848,150.37387295790114L195.835376,151.11143414141296L196.227056,147.85756528056598L196.44465599999998,147.11904295639357L196.67096,147.04439128998615L196.679664,145.7433700848442L196.697072,145.2430050165249L196.723184,147.676988911825L197.22801600000003,148.46796352174735L197.306352,147.46671770666154L197.880816,149.79298438782462L197.906928,150.9393185364006L197.98526399999997,152.09921260397422L198.420464,150.47053207588664L198.59454399999998,150.05170775283858L198.646768,147.3301996191113L199.04715199999998,149.15220448261613L199.30827200000002,151.01480609557697L199.31697599999998,149.12368877236048L199.39531200000002,150.4955480076611L199.46494399999997,149.69841439665794L199.91469600000002,150.2111008890953L199.98432799999998,151.0339510733477L200.080072,151.47943976712773L200.123592,152.46435976646126L201.19418399999998,150.69013427717556L201.220296,146.18619736446777L201.342152,149.664751711533L202.15162400000003,150.5800347141448L202.169032,150.55750643496353L202.691272,152.1974464613215L202.743496,151.95222615833674L202.778312,152.30754468112048L203.14388,151.87159241188382L203.378888,152.96256917740442L203.518152,151.52582464792155L203.56167200000002,151.48437172131432L203.59648800000002,150.00433030624208L203.683528,150.56131308316597L203.79668,150.93547551282887L203.84890399999998,150.17408683083144L204.649672,148.85023641396575L204.84116,150.96414256205566L204.95431200000002,150.1891787285978L205.137096,151.06489072280374L205.311176,152.65219619468635L205.447584,153.0090266252058L205.882784,151.9430036222635L206.100384,150.483613799554L206.77059200000002,151.2865298689779L206.796704,150.6872625668422L206.83152,149.76150503051733L206.96208,150.71374544601116L207.083936,151.72909428686185L207.78025599999998,152.45551501798053L207.91952,151.93504446163726L208.929184,153.13649725826056L209.3992,152.79570569231493L209.721248,152.64117109483112L210.025888,153.00658255770432L210.40016000000003,153.22055628514812L210.626464,153.3020150541754L210.722208,153.73132857166925L210.73091200000002,152.16601396081268L211.044256,152.60068582357417L211.22704,151.15007690257698L211.502712,149.9200160260014L211.624568,151.56889793772322L212.181624,151.03874443768754L212.634232,152.5229153977851L212.921464,152.88940548227103L213.287032,153.2117737735487L213.469816,149.5688661868976L213.687416,149.2822884256754L214.523,149.98808116488837L214.7406,150.12371216355672L214.879864,151.0339895707453L214.993016,146.13049983960894L215.04524,147.3772958583087L215.13228,150.21972465222035L215.23672799999997,151.80537702842773L215.367288,151.26905931840372L215.39339999999999,151.12436955569703L215.732856,152.23730630124967L215.81119199999998,152.2703643361575L215.92434400000002,152.38729912440309L215.967864,152.8511481852849L216.29861599999998,153.4213848593433L216.39436,149.90726898879404L216.577144,150.752810495097L216.907896,149.80752183094535L217.09938400000001,145.13619056996652L217.34024,147.1250533590135L217.392464,148.16312135856847L217.42728,149.95759352059068L217.53172800000002,149.58200159749924L217.549136,151.4211406860704L218.019152,152.02864849814503L218.358608,148.38410346432764L218.724176,147.50115534945868L218.802512,149.19273978604105L219.01140800000002,150.4477092991142L219.20289599999998,151.1292677455317L219.43790399999997,151.26400082234568L219.69031999999999,149.1535996387841L220.290896,148.99276500063786L220.482384,150.5433585438439L221.152592,152.02322922281155L221.21352000000002,150.74560574893192L221.283152,151.2004949518534L221.570384,149.72734235113813L221.831504,150.87245802811356L221.95336,146.94745238859397L222.04039999999998,148.53462558531132L222.101328,149.3723636037461L222.440784,150.4322221892388L222.919504,151.74603778525062L223.06747199999998,151.52328209670702L223.137104,151.21249847802412L223.14580800000002,150.71669867041942L223.20388,152.2406175926148L223.2474,152.6187251710039L223.926312,152.31883351896056L224.20484000000002,148.78987070407777L224.413736,148.0280034660477L224.500776,150.89737583024188L224.72708,152.5613511786018L225.040424,148.30672809020604L225.397288,147.5895360427256L225.405992,149.30737581802342L225.580072,150.95463858144242L225.841192,149.3405250815854L226.224168,150.9096079991493L226.546216,149.49779329679808L226.67677600000002,150.78559694838464L226.85956000000002,151.82661641051286L227.085864,149.55791216438956L227.172904,151.41778971051244L227.364392,152.26538642690372L227.590696,151.2092319760966L228.878888,150.1392008325009L229.131304,146.19444710824183L229.41567999999998,140.70538793988996L229.67680000000001,144.79478157975063L229.702912,146.302199857937L229.93792,149.70469092913373L230.216448,150.08923009500148L230.312192,147.5042552968278L230.71257599999998,149.34264731528845L230.747392,149.10125117821983L230.97369600000002,150.65605780079062L230.999808,152.01891455427017L231.2,150.38087557330851L231.234816,150.28682244278565L231.24352000000002,150.17445064422532L231.67872,149.2169198309603L231.8528,150.6194209119065L231.96595200000002,151.70536155911586L232.23577600000002,152.75348391508567L232.836352,149.77466353029314L232.862464,151.58072283026013L232.90598400000002,148.00810363534947L232.966912,146.7785663844279L233.01043199999998,149.71171915431734L233.619712,149.88028271920928L233.706752,151.74209231635152L233.71545600000002,151.43879895657432L233.72416,149.90471188053567L234.977536,147.34251173183367L235.038464,148.0968174794766L235.288024,149.58489221204536L235.401176,149.87170505818258L235.44469600000002,151.24700351645964L235.575256,150.5673557346488L235.81896799999998,151.69733532148152L235.90600799999999,152.600588161141L236.18453599999998,151.27897732385415L236.34991200000002,148.00282734440813L236.480472,150.29208913274587L236.93308,151.69900734824972L237.098456,151.50782257379913L237.10716000000002,152.15551849416985L237.141976,153.1944147422513L237.32476,150.70099086535578L237.39439199999998,151.10199151693345L237.429208,152.37703122250252L237.707736,148.26165155650384L238.01237600000002,148.94757789198283L238.491096,151.2250436971633L238.813144,151.85397997267833L238.917592,150.6829409782904L239.03944800000002,146.70291551410062L239.28316,149.02839195759685L239.29186399999998,149.4369017185664L239.605208,149.98966072473797L240.057816,151.55485955330803L240.11004,147.75337837161464L240.170968,149.2158333828112L240.310232,150.44247542310868L240.353752,152.24530236300112L240.362456,152.8628190048115L240.693208,151.7350182674871L240.80635999999998,152.89316344607897L241.05592,153.31728168822244L241.821872,153.00142932830403L241.8828,151.4242854902038L242.01335999999998,149.069308645361L242.14392,150.53299618472656L242.370224,151.5104107908383L242.788016,149.6581246943459L242.9708,150.78421241849273L243.04043199999998,150.79359441695874L243.110064,150.38790977119365L243.38859200000002,151.93719481291373L243.44952,150.88207853428722L243.562672,151.84893302413641L243.65841600000002,152.93355560197872L243.745456,153.20802765239443L243.815088,152.81371832727888L244.093616,147.6119805803269L244.53752,149.33198181981564L244.720304,151.56505182725024L245.042352,151.06432135718663L245.346992,151.7243334636396L246.469808,148.94352919446266L248.129416,151.26593118100962L248.83444,152.07432588973404L248.92148,152.84400474452232L249.234824,153.24999845801744L249.330568,153.01007097548367L249.34797600000002,152.23319330527556L249.4002,152.61693460957213L249.80928799999998,151.51065254749955L249.8354,151.83503095830739L249.931144,151.52292399495997L250.218376,150.30300859743448L250.766728,149.83100018804726L250.862472,148.78886367324267L251.193224,146.05817758854195L251.5762,149.17267001943864L251.776392,151.45654180717963L252.57716000000002,152.12539821608362L252.690312,152.91863735211862L252.75994400000002,153.46561083443L252.829576,153.13441159332265L252.98339199999998,153.8421889622962L252.992096,153.6463503259394L253.56656,152.8953995435967L253.618784,148.64740576547587L253.879904,151.1003286409137L254.167136,152.48709743221892L254.17584,150.49835096225317L254.46307199999998,150.79200049668654L254.65456,152.27800533729854L254.671968,152.88115893096813L254.7416,152.63794983985179L254.87216,147.8785400826463L255.237728,146.8345642559963L255.577184,149.97838265680448L255.585888,150.03079995875464L256.13424,149.17691478276197L256.15164799999997,150.9101531242218L256.299616,151.97673839389603L256.52592,151.9434308226962L257.04816,149.64168258852118L257.100384,151.80901492886866L257.370208,149.8667859181948L257.378912,150.0219135419391L257.500768,151.05928212599383L257.74448,150.8906224001731L258.170976,150.47239500235233L258.942776,150.8617047798676" fill="none"></path></g></g></g></g><g opacity="0.2"><g><g><g><path style="fill: none;" stroke="rgb(255, 112, 67)" stroke-width="2px" d="M34.517208,-4.670023500919342L34.58684,3.8811632692813873L34.821848,-71.96861016750339L34.88277600000001,-26.37441548705101L34.908888,0.9635822176933289L35.039448,41.78625640273094L35.06556,41.86799031496048L35.291864,-17.084453880786896L35.970775999999994,26.37991127371788L36.258008,14.651525884866714L36.379864,7.723704844713211L36.519128,25.390072882175446L36.684504000000004,-27.459024369716644L37.058775999999995,35.29028695821762L37.258968,40.653559386730194L37.728984000000004,12.876787304878235L37.772504000000005,41.262605011463165L37.929176,46.20917108654976L38.051032,-8.659508407115936L38.181592,46.31522756814957L38.32956,38.08657345175743L38.573272,49.157108932733536L39.162288,30.243884295225143L39.519152,53.91612996160984L39.562672,51.56813335418701L39.588784000000004,45.176257610321045L41.085871999999995,73.80004924535751L41.27736,27.20103007555008L41.303472000000006,65.6479303240776L41.468848,62.35031244158745L41.608112,47.76370686292648L41.982384,64.79504895210266L42.15646400000001,45.53962406516075L42.347952,14.355636656284332L42.478512,57.3073313832283L42.696112,75.99970337748528L42.722224000000004,56.6285805106163L42.84408,61.16586697101593L42.948528,78.74912847578526L42.97464,55.08956131339073L43.427248,46.74036857485771L43.514288,78.06995321810246L43.610032000000004,87.86373284459114L44.045232,67.67670978605747L44.097455999999994,94.59261012077332L44.28024,58.063426434993744L44.419504,80.01780112087727L44.811184000000004,66.651760160923L45.548168000000004,74.97304295003414L47.114888,104.90814466774464L47.297672,64.00696587562561L48.05492,99.26682044565678L48.211592,96.51852262020111L48.646792,63.84320628643036L48.994952,81.6962308138609L49.151624,99.05025807023048L49.325703999999995,123.65386982262135L49.630344,92.98964139819145L49.70868,98.67133525013924L49.726088,91.24457661807537L49.7522,88.62135303020477L49.79572,104.66784325242043L49.961096,93.2793505191803L50.239624,115.4453308954835L50.57908,96.46319341659546L50.935944,77.82385629415512L51.002720000000004,70.19530919194221L51.490144,92.99497936666012L51.864416,120.09479426592588L52.099424,110.81243512034416L52.195168,81.41089153289795L52.586848,110.4812655672431L53.030752,101.27111156284809L53.552992,74.90784016251564L53.727072,111.11291964352131L53.91856,118.39039751142263L54.153568,108.27333261072636L54.432095999999994,114.17576637864113L54.771552,110.37547764182091L55.65936,102.3788361698389L55.676767999999996,115.04902818053961L55.885664,98.53457053005695L55.92048,88.518824249506L56.042336,110.93611684441566L56.05104,93.23490944504738L56.155488,107.35310994833708L56.44272,101.90354809910059L56.988216,101.39389478415251L57.023032,92.2718736231327L57.171,94.40988582372665L57.258039999999994,118.90539874136448L57.371192,103.22633315622807L57.545272,84.2236030548811L57.553976,114.9993187636137L58.232887999999996,118.55977688729763L58.581047999999996,109.14462168514729L58.65068,88.91161252558231L59.04236,115.76311905682087L59.69516,91.70569089055061L59.729976,103.03396072983742L59.73868,121.08302463591099L59.808312,112.42312234640121L59.947576,93.94993197917938L59.95628,114.2977240383625L60.165175999999995,116.6829405426979L60.635191999999996,101.19964909553528L60.704824,117.44159848242998L60.765752,104.25164417177439L60.809272,100.09665240347385L61.705783999999994,88.09382912516594L61.9582,125.85818555951118L62.140984,109.93608326464891L62.912784,128.13372173160315L63.365392,108.28394223749638L63.739664,110.33338394761086L63.800591999999995,127.30300121754408L64.087824,114.34697923064232L64.348944,139.8834374435246L64.38376,112.4943659901619L65.010448,131.1448382474482L65.698064,103.86553332954645L65.837328,135.52142367511988L66.03752,122.3027968481183L66.22900800000001,135.0583830922842L66.49883200000001,129.9833427257836L66.899216,119.68955625593662L67.395344,110.28054137527943L67.525904,126.7175520658493L67.760912,107.07096350193024L67.961104,138.20021849870682L68.091664,114.44764469563961L68.36148800000001,121.40981440246105L68.63131200000001,140.30168716609478L68.77057599999999,123.91618621349335L69.542376,115.21269825100899L69.63812,130.79121938720345L70.14295200000001,133.02112090215087L70.76964,131.58059219643474L70.90890399999999,148.9941518921405L71.056872,128.88406934961677L71.10909600000001,114.55476877093315L71.12650400000001,120.24628315865993L71.143912,129.02944941818714L71.222248,112.59729926288128L71.38762399999999,128.35262817144394L71.500776,119.05906592309475L71.62263200000001,130.29789329320192L71.68356,122.37120573222637L71.918568,119.32758894562721L71.953384,117.44388618320227L72.066536,121.58524789661169L72.07524000000001,140.43003049492836L72.39728799999999,135.70435684919357L72.710632,136.58752704784274L73.441768,141.24257539212704L73.659368,130.57894064858556L74.02493600000001,132.0927934795618L74.03363999999999,122.22734250873327L74.33828,132.10005278512836L74.608104,135.0824221856892L74.840256,138.11354779452085L74.944704,132.58735625818372L75.005632,139.73073507472873L75.127488,129.85592939704657L75.188416,120.62328961491585L75.397312,136.79223150759935L75.51916800000001,140.9894280396402L75.597504,137.65401833504438L75.623616,138.96120724081993L75.823808,130.11263594776392L75.867328,137.25859754532576L76.23289600000001,123.77969336509705L76.55494399999999,133.76137279719114L76.607168,132.33241687342525L77.120704,130.53935016319156L77.28608,124.1328977867961L77.364416,138.13762335851789L77.42534400000001,146.96882221661508L77.912768,143.59859884530306L78.356672,131.09735850989819L78.791872,124.94687166810036L80.11488,120.14492475241423L80.167104,141.04492136090994L80.32377600000001,137.68451769649982L80.393408,141.7410023957491L80.947608,103.9677272439003L80.999832,137.11154977604747L81.025944,131.25063943490386L81.11298400000001,139.14313250035048L81.14779999999999,122.77896684408188L81.16520799999999,132.08843192830682L81.208728,134.81091852113605L82.14876,126.4058544933796L82.218392,129.67966371029615L82.227096,131.7897195443511L82.36636,125.30584175884724L83.698072,122.88857091963291L83.915672,136.6357544325292L84.751256,136.49491661041975L84.812184,115.42691656202078L85.273496,129.84867838025093L85.58684,134.45371559634805L86.013336,141.37651198357344L86.9244,127.39346486330032L86.93310399999999,132.51510635763407L87.22904,133.14612385630608L87.646832,126.79850020259619L87.681648,138.90978702157736L87.75128,144.28481044061482L88.09944,149.75158806703985L88.116848,132.83552869036794L88.177776,131.64453011751175L88.212592,138.92861579358578L88.612976,124.96537883579731L88.726128,138.60440715029836L88.75224,118.35433472692966L88.90020799999999,130.20261221379042L88.917616,135.31153210252523L89.082992,131.51097812503576L89.613936,143.5669539757073L89.70968,144.83045940101147L89.979504,114.18229129910469L90.01432,132.43298121541739L90.04043200000001,140.2699676975608L90.954352,132.62335439026356L91.05879999999999,129.8201567195356L91.241584,145.38367518037558L91.267696,138.85473632067442L91.32862399999999,128.7161040380597L91.633264,130.0979349836707L92.251248,144.26489418186247L92.753224,130.94945368170738L93.014344,134.8560028038919L93.17101600000001,142.02459108829498L93.466952,143.63082061335444L93.675848,132.41638378053904L93.797704,122.49840521067381L94.26772,142.82959651947021L95.14682400000001,146.44787047803402L95.338312,143.5468404442072L96.06944800000001,134.13562738150358L96.13037600000001,132.467843785882L96.173896,123.91714107990265L97.018184,129.0949058420956L98.167112,139.45556943118572L98.18451999999999,141.15261404588819L98.210632,137.6250374764204L98.602312,141.0005316771567L99.1304,123.23622849583626L99.670048,135.46943981945515L99.75708800000001,127.86424384266138L99.818016,144.74806984700263L99.87024,149.44176955893636L99.992096,134.41683388128877L100.096544,141.32127561420202L100.157472,133.81889852508903L100.2184,153.36315267998725L100.357664,128.55398230999708L100.679712,144.7223622240126L100.923424,146.85713765956461L101.402144,144.89766807109118L101.750304,137.78699177131057L101.76771199999999,149.59816374629736L101.898272,147.52369823679328L101.941792,142.10845189914107L102.081056,135.84780563414097L102.159392,141.57282157614827L102.376992,147.10462626814842L103.195168,143.60435622557998L103.212576,148.80884978733957L103.96112,138.3323614001274L104.16131200000001,150.18046565167606L104.196128,139.01321098953485L104.291872,129.27968078106642L104.300576,149.69889635033906L104.3528,145.1241355277598L104.611064,150.0714579531923L104.872184,141.00668194517493L105.13330400000001,140.34299508482218L105.27256799999999,140.14321083948016L105.307384,148.28076804801822L106.499832,146.23185516148806L106.69132,131.61847685277462L106.830584,145.08535899966955L107.439864,145.69242526590824L107.64876,143.58564100973308L107.883768,136.72357727587223L108.73676,149.11466896347702L108.77157600000001,142.56434093043208L108.82379999999999,142.27157242409885L109.206776,138.68054282665253L109.946616,142.9923390764743L109.96402400000001,144.83711113967001L110.111992,143.43964176997542L110.251256,136.24885781481862L110.364408,146.21668836846948L110.89249600000001,144.2522844746709L111.01435199999999,147.35199468955398L111.52788799999999,130.69266921654344L111.762896,139.97573456540704L111.789008,127.38994379341602L111.81512,150.40565995313227L111.99790399999999,146.56242212094367L112.215504,145.83213249966502L112.33736,132.7884368672967L112.59848000000001,149.6316163968295L112.650704,137.88285306468606L112.676816,144.5465408153832L113.17294399999999,149.58291240781546L113.46017599999999,140.2686050236225L113.538512,129.82550297677517L113.590736,143.50833661668003L113.66036799999999,137.9570243023336L114.10427200000001,148.57000553794205L114.522064,150.7949545122683L114.71355199999999,145.40145625174046L114.73096,142.63517262227833L115.07041600000001,149.8974803816527L115.157456,130.19277675822377L115.235792,139.83548856154084L115.42728,145.4115428570658L115.51432,135.7517487257719L115.64488,143.17820150218904L115.94952,146.8850849084556L116.097488,149.8697071969509L116.175824,139.82719150185585L116.695208,144.01002608053386L116.747432,144.58975100703537L116.92151199999999,143.68207754381L117.034664,149.39040901884437L117.348008,147.52371812984347L117.37411999999999,147.30340840108693L117.530792,136.2049952968955L117.757096,141.21032378450036L118.383784,135.75832669436932L118.47082400000001,140.3356412872672L118.73194400000001,150.6923656379804L118.827688,145.6405400466174L118.89732000000001,141.92509599775076L118.966952,131.85858596861362L119.001768,122.14866217970848L119.11492,145.24291361495852L119.23677599999999,127.3438051789999L120.011432,146.80400912463665L120.107176,135.9996642060578L120.42052000000001,136.41370323300362L120.68163999999999,141.80096336454153L120.69904799999999,140.58983965590596L121.047208,132.85348216816783L121.09943200000001,143.73631760291755L121.38666400000001,148.2014925852418L121.499816,144.98027396202087L121.543336,137.56784495711327L121.821864,153.00977336522192L121.90890399999999,141.80757117271423L122.196136,143.9893207307905L122.20483999999999,150.51371858734637L122.48051199999999,141.6825798228383L122.619776,147.6003892607987L122.637184,153.6940232156776L122.785152,139.53342419862747L122.93311999999999,148.5769755654037L122.95052799999999,147.92142330482602L123.15071999999999,151.15367013774812L123.168128,134.1619806997478L123.377024,147.21522333845496L123.385728,143.77982453256845L123.768704,148.33493433706462L123.77740800000001,144.5911460071802L124.00371200000001,145.39211812242866L124.377984,129.84478100016713L124.38668799999999,133.96167923510075L124.41279999999999,152.99252360407263L124.621696,144.11059290915728L124.647808,137.4628660157323L124.856704,145.76929201185703L124.943744,141.82523288577795L125.178752,151.36013927683234L125.744512,142.9822988882661L126.057856,150.51112958975136L126.231936,146.91516071371734L126.440832,148.28979617729783L127.04140799999999,145.42634660191834L127.15456,146.54956623725593L127.95532800000001,150.2250202819705L127.972736,145.91144277527928L127.998848,139.28887893259525L128.085888,150.61819813027978L128.181632,135.0436224490404L128.483416,137.66824849694967L128.61397599999998,151.20190083794296L128.631384,151.55456151627004L128.718424,147.0688776280731L129.031768,147.49989288672805L129.519192,135.16108096390963L129.780312,145.54670287109911L129.980504,130.51673176512122L130.554968,135.66208909079432L130.589784,146.98910981230438L130.920536,146.2948547936976L131.085912,148.6212243400514L131.512408,147.29494888149202L132.260952,145.38353012688458L132.339288,133.64801390841603L132.78319199999999,143.23563854023814L133.06172,134.49509811401367L133.166168,130.8451113179326L133.75804,145.4646680764854L133.914712,145.13604649156332L133.923416,146.98117331415415L134.071384,149.5218929629773L134.114904,141.3337021395564L134.260016,145.84862715378404L134.851888,153.22938310727477L135.017264,150.05625593289733L135.18264,143.45227883011103L135.643952,143.77643608301878L135.79192,153.3014119048603L135.905072,143.50495065376163L136.18359999999998,151.90519641898572L136.322864,142.77679621987045L136.644912,147.39042060263455L136.70584,151.85482721589506L136.766768,148.45888461731374L136.862512,142.56552208028734L136.87121599999998,152.77488969778642L137.341232,145.3600007928908L137.428272,132.21589001640677L137.4892,145.8536750152707L137.497904,150.61924168653786L138.237744,137.7074029929936L138.333488,149.80324948951602L138.542384,151.1825349535793L138.759984,153.9167605182156L138.820912,142.15261778607965L138.864432,146.92259574122727L139.07332799999998,150.20336586795747L139.23,142.6832458358258L139.308336,151.11020796746016L139.386672,153.19016043609008L140.065584,139.70069159567356L140.117808,137.47947008162737L140.376072,148.89076522365212L140.43699999999998,146.72442200407386L140.515336,144.40395240485668L141.04628,143.93173117935658L141.081096,147.1200641039759L141.124616,145.5704344511032L141.333512,140.70973838493228L141.429256,142.59641267172992L141.464072,151.7371026314795L141.69037600000001,145.74562674202025L141.69908,147.49216443672776L141.79482399999998,149.23970590159297L142.24743199999998,142.98680549301207L142.804488,149.80837485101074L142.82189599999998,150.18694456946105L142.908936,125.376306258142L143.17876,135.2596825249493L143.587848,142.57820472866297L143.78804,137.98620077595115L144.22324,130.5899630561471L144.519176,153.23909920454025L145.058824,137.62216624617577L145.328648,146.53844353556633L145.35476,145.27758388593793L145.87699999999998,151.15264315903187L146.04237600000002,146.2335783969611L146.11200799999997,153.02162547875196L146.48342399999999,148.91594319418073L146.51824,133.95947773754597L146.718432,147.80166548490524L146.74454400000002,137.7117446511984L146.95344,147.50893013365567L146.979552,147.92371680773795L147.08399999999997,151.0030283574015L148.050144,142.87815213948488L148.067552,151.1868513310328L148.241632,146.65120314620435L148.920544,141.08488649874926L149.077216,147.54185396060348L149.877984,140.6779492907226L150.147808,152.67590726772323L150.374112,154.11152404779568L150.73968,148.86165588907897L150.896352,145.69052133522928L150.939872,143.22278016991913L151.09654400000002,142.4583980049938L151.20099199999999,146.270601850003L151.227104,132.95642870292068L151.688416,150.27776131685823L151.723232,148.95543421432376L152.199096,147.1233820989728L152.373176,152.24637549184263L152.738744,144.11847967468202L152.75615200000001,147.5787207558751L153.008568,151.83741333708167L153.043384,152.86874034255743L153.069496,150.07575236540288L153.130424,147.25886371731758L153.21746399999998,150.2731834286824L153.574328,144.4539685063064L153.757112,152.74540053028613L153.77452,152.7597338873893L153.809336,149.94288005214185L154.348984,145.1452619470656L154.69714399999998,141.43708963692188L154.705848,149.00218205340207L154.84511200000003,140.75991363078356L154.90604000000002,151.26744097843766L155.088824,153.68152561411262L155.34124,147.362613433972L155.524024,146.72453638911247L155.62847200000002,145.67636991664767L155.941816,149.55216479767114L156.03755999999998,148.13897784613073L156.333496,154.20900268759578L156.90796,148.87184610404074L156.942776,149.2635584976524L157.456312,154.2077244555112L157.56946399999998,151.16175997816026L157.77836,150.91908217221498L157.804472,145.30245765857399L158.396344,145.65245681256056L158.422456,150.91932586207986L158.535608,151.23038602806628L158.92728799999998,154.59049709886312L158.970808,149.25540068931878L158.988216,151.6420229692012L159.01432799999998,149.7985447831452L159.101368,149.04133820720017L159.118776,138.90067268908024L159.632312,147.80634449608624L159.68453599999998,155.29002087470144L159.69324,146.18506670743227L159.788984,147.86383043788373L160.163256,151.45994353853166L160.189368,147.87738009169698L160.598456,151.86351301893592L160.615864,148.6232600621879L161.051064,151.3284637387842L161.12939999999998,150.9505786728114L161.138104,153.41967235831544L161.199032,147.2366556134075L161.320888,152.8669170201756L161.669048,145.33796841092408L161.82572,138.93665590137243L161.88664799999998,136.4936003535986L161.99980000000002,150.44188934192061L162.17388,150.45359805971384L162.287032,151.34364752378315L162.34796,145.9482449181378L162.548152,144.53638872876763L162.55685599999998,150.55262069031596L162.591672,147.84452340379357L162.80927200000002,147.39524466730654L163.052984,138.48468082770705L163.105208,151.1022938489914L163.140024,141.62187783792615L163.253176,154.74973454186693L163.27058399999999,121.41431686282158L163.557816,150.96790469065309L163.65356,150.71637945063412L163.998864,146.05205680057406L164.23387200000002,153.26170889940113L164.46888,152.38060426246375L164.477584,151.05305772088468L164.73,150.67822540923953L165.17390400000002,148.4182762708515L165.417616,152.54479569662362L165.661328,148.7473960109055L165.757072,152.0989928562194L166.009488,143.8169134669006L166.018192,142.79501162283123L166.375056,144.13835946284235L166.80155200000002,145.06298843584955L167.053968,153.24195986660197L167.941776,145.56039011850953L167.95048,151.1359794139862L167.959184,148.1873411666602L168.002704,149.31713545508683L168.09844800000002,141.50402477756143L168.237712,153.89184530172497L168.31604800000002,136.6862662024796L168.333456,152.68687869934365L168.55105600000002,153.1112335161306L168.846992,146.06177952885628L169.247376,151.16910673025995L169.665168,139.33485342934728L169.949544,149.7021476207301L169.97565600000001,149.69468606915325L169.98435999999998,152.5454623210244L170.13232799999997,145.39197555556893L170.236776,140.18098608404398L170.428264,153.96226545609534L170.60234400000002,144.28399068117142L170.74160799999999,153.62483124993742L170.959208,147.0614492315799L171.55108,149.81898862216622L171.751272,141.476109854877L171.76868,151.72232043743134L171.91664799999998,147.99408018402755L172.830568,143.89797018654644L173.12650399999998,153.8247302947566L173.21354399999998,152.12021998409182L173.68356,153.04992168489844L173.72708,153.41968043986708L174.092648,144.7918784879148L174.153576,153.58234383910894L174.388584,149.9995748307556L174.397288,151.01726556476206L174.72804,151.04171785339713L175.154536,140.7526941113174L175.50269600000001,152.8056810311973L175.520104,148.28028398379683L175.92633600000002,148.78820991888642L175.99596799999998,143.07025932520628L177.005632,152.1270462013781L177.13619200000002,149.0887064607814L177.17100800000003,152.19847054034472L177.29286399999998,151.70335241407156L177.466944,153.29914803430438L178.058816,150.91212333459407L178.084928,153.52487779036164L178.267712,146.4146689772606L178.389568,153.85232920804992L178.41567999999998,148.06220476329327L178.49401600000002,154.75242341915146L178.702912,146.8886175826192L178.79865600000002,140.65870773792267L178.920512,143.44446417689323L178.95532799999998,153.1326369876042L179.120704,148.688214186579L179.399232,152.5949908355251L179.738688,149.72969908080995L179.79091200000002,151.30605048779398L179.86054399999998,146.2320922203362L180.25222399999998,151.26061061676592L180.54816,147.81206623464823L180.80928,152.41473472723737L180.89632,151.32257125154138L181.192256,145.40306095778942L181.496896,152.32609875546768L181.610048,149.31710395775735L181.662272,147.01196444034576L181.775424,140.79012785851955L182.219328,151.86035126727074L183.03750399999998,144.1374186873436L183.11584000000002,154.5795742601622L183.403072,144.5317917764187L183.716416,141.36609465628862L184.003648,139.01707687228918L184.169024,151.10204021260142L184.229952,149.6938024861738L184.404032,152.6424210476689L184.647744,141.44633161649108L185.13516800000002,146.86982693895698L185.15257599999998,151.7503480874002L185.59647999999999,145.61407980322838L186.34502400000002,144.16723339632154L186.432064,150.91204997897148L186.754112,146.4974862318486L186.81504,149.20736145973206L186.832448,145.52330449968576L187.900184,151.26033087074757L188.431128,145.32902814261615L188.474648,152.26274664327502L188.640024,148.81646551005542L188.744472,148.50159250944853L188.753176,149.33184802345932L188.8054,152.1447829278186L188.970776,147.53331735543907L189.231896,153.24911038205028L189.2406,151.84984732232988L189.275416,152.6660840380937L189.37116,137.31177829951048L189.440792,152.83461795933545L189.815064,153.5829814528115L190.15452000000002,145.90536047518253L190.293784,153.87101893592626L190.598424,146.81746843084693L190.80732,148.14918215200305L191.33826399999998,153.0602822341025L191.608088,155.26813411607873L191.63420000000002,143.74463041126728L192.226072,153.97357569122687L192.27829599999998,148.53837144374847L192.57423200000002,135.68731513619423L192.661272,148.87724623829126L192.80924000000002,147.72840352542698L193.02684000000002,154.20483530079946L193.11388000000002,153.22906896285713L193.279256,144.59123718366027L193.50556,144.33503127470613L193.59844800000002,150.71791121549904L193.78993599999998,149.89017714560032L194.817008,149.21791182179004L195.556848,152.31092761084437L195.835376,152.2177759166807L196.227056,142.97676198929548L196.44465599999998,146.01125947013497L196.67096,146.932413790375L196.679664,143.79183827713132L196.697072,144.49245741404593L196.723184,151.32796475477517L197.22801600000003,149.65442543663085L197.306352,145.96484898403287L197.880816,153.2823844095692L197.906928,152.6588197592646L197.98526399999997,153.83905370533466L198.420464,148.0275112837553L198.59454399999998,149.42347126826644L198.646768,143.24793741852045L199.04715199999998,151.88521177787334L199.30827200000002,153.80870851501822L199.31697599999998,146.2870127875358L199.39531200000002,152.55333686061203L199.46494399999997,148.5027139801532L199.91469600000002,150.98013062775135L199.98432799999998,152.26822634972632L200.080072,152.1476728077978L200.123592,153.94173976546153L201.19418399999998,148.02879604324698L201.220296,139.43029199540615L201.342152,154.88258323213086L202.15162400000003,151.95295921806246L202.169032,150.52371401619166L202.691272,154.65735650085844L202.743496,151.58439570385963L202.778312,152.8405224652961L203.14388,151.2176640080288L203.378888,154.59903432568535L203.518152,149.37070785369724L203.56167200000002,151.4221923314035L203.59648800000002,147.78426818363369L203.683528,151.39678724855185L203.79668,151.49671915732324L203.84890399999998,149.03200380783528L204.649672,146.8644607886672L204.84116,154.13500178419054L204.95431200000002,149.02673297841102L205.137096,152.37845871411264L205.311176,155.03315440251026L205.447584,153.54427227098495L205.882784,150.34396911785007L206.100384,148.29452906548977L206.77059200000002,152.49090397311375L206.796704,149.7883616136387L206.83152,148.37286872603L206.96208,152.1421060692519L207.083936,153.2521175481379L207.78025599999998,153.54514611465856L207.91952,151.15433862712234L208.929184,154.9386764531955L209.3992,152.28451834339648L209.721248,152.40936919860542L210.025888,153.55469975201413L210.40016000000003,153.54151687631384L210.626464,153.42420320771635L210.722208,154.37529884791002L210.73091200000002,149.81804204452783L211.044256,153.25269361771643L211.22704,148.9741635210812L211.502712,148.074924711138L211.624568,154.042220805306L212.181624,150.243514187634L212.634232,154.7491718379315L212.921464,153.43914060899988L213.287032,153.69532621046528L213.469816,144.1045048069209L213.687416,148.85242178384215L214.523,151.0467702737078L214.7406,150.32715866155922L214.879864,152.39940568152815L214.993016,138.77526524290442L215.04524,149.24748988635838L215.13228,154.48336784308776L215.23672799999997,154.18385559273884L215.367288,150.46458275336772L215.39339999999999,150.907334911637L215.732856,153.90671141957864L215.81119199999998,152.31995138851926L215.92434400000002,152.5627013067715L215.967864,153.54692177660763L216.29861599999998,154.2767398704309L216.39436,144.63609518297017L216.577144,152.02112275455147L216.907896,148.38958883471787L217.09938400000001,138.12919367849827L217.34024,150.10834754258394L217.392464,149.72022335790098L217.42728,152.64930176362395L217.53172800000002,149.01861371286213L217.549136,154.17984931892715L218.019152,152.93991021625698L218.358608,142.91728591360152L218.724176,146.17673317715526L218.802512,151.73011644091457L219.01140800000002,152.33016356872395L219.20289599999998,152.15160541515797L219.43790399999997,151.46610043756664L219.69031999999999,145.9879978634417L220.290896,148.75151304341853L220.482384,152.869248858653L221.152592,154.243035241263L221.21352000000002,148.82917053811252L221.283152,151.88282875623554L221.570384,147.51761345006526L221.831504,152.59013154357672L221.95336,141.0599439293146L222.04039999999998,150.9153853803873L222.101328,150.62897063139826L222.440784,152.02201006747782L222.919504,153.71676117926836L223.06747199999998,151.18914856389165L223.137104,150.74632304999977L223.14580800000002,149.97299895901233L223.20388,154.5264959759079L223.2474,153.1858865385875L223.926312,151.86899604089558L224.20484000000002,143.4964264817536L224.413736,146.8852026090026L224.500776,155.20143437653314L224.72708,155.0573142011417L225.040424,141.9247934576124L225.397288,146.51374797150493L225.405992,151.88413548097014L225.580072,153.42553272657096L225.841192,146.91935483179986L226.224168,153.26323237549514L226.546216,147.38007124327123L226.67677600000002,152.7173024257645L226.85956000000002,153.3881456037052L227.085864,146.15485579520464L227.172904,154.20760602969676L227.364392,153.53678150149062L227.590696,149.62500029988587L228.878888,148.5341541171074L229.131304,140.2773165218532L229.41567999999998,132.4717991873622L229.67680000000001,150.9288720395416L229.702912,148.56332727521658L229.93792,154.8084275359288L230.216448,150.6660388438031L230.312192,143.6267930995673L230.71257599999998,152.10023534297943L230.747392,148.7391569726169L230.97369600000002,152.9882677346468L230.999808,154.06319968448952L231.2,147.923817101866L231.234816,150.14574274700135L231.24352000000002,150.00589294638485L231.67872,147.78062361106277L231.8528,152.72317253332585L231.96595200000002,153.33427252992988L232.23577600000002,154.32566744904034L232.836352,145.30643295310438L232.862464,154.28981178021058L232.90598400000002,142.64917484298348L232.966912,144.93426050804555L233.01043199999998,154.11144830915146L233.619712,150.13312806654721L233.706752,154.5348067120649L233.71545600000002,150.9838589169085L233.72416,147.6035812664777L234.977536,143.49921150878072L235.038464,149.228276100941L235.288024,151.81700431089848L235.401176,150.3019243273884L235.44469600000002,153.30995120387524L235.575256,149.54788406193256L235.81896799999998,153.3923047017306L235.90600799999999,153.95546742063016L236.18453599999998,149.2965610679239L236.34991200000002,143.08860237523913L236.480472,153.72598181525245L236.93308,153.80938467150554L237.098456,151.2210454121232L237.10716000000002,153.12706237472594L237.141976,154.75275911437348L237.32476,146.96085505001247L237.39439199999998,151.7034924943L237.429208,154.2895907808561L237.707736,142.08858205750585L238.01237600000002,149.97646739520133L238.491096,154.64124240493402L238.813144,152.79738438595086L238.917592,148.92638248670846L239.03944800000002,140.73287731781602L239.28316,152.5166066228412L239.29186399999998,150.04966636002064L239.605208,150.81879923399538L240.057816,153.9026577961631L240.11004,142.0511565990746L240.170968,151.40951589960605L240.310232,152.28243848355487L240.353752,154.94954277283978L240.362456,153.78909396752715L240.693208,150.04331716150045L240.80635999999998,154.63038121396676L241.05592,153.95345905143768L241.821872,152.5276507884264L241.8828,149.05856973305345L242.01335999999998,145.53684337809682L242.14392,152.7285274937749L242.370224,152.97653270000592L242.788016,146.87969554960728L242.9708,152.473344004713L243.04043199999998,150.80766741465777L243.110064,149.77938280254602L243.38859200000002,154.26112237549387L243.44952,149.29940411634743L243.562672,153.29921475891024L243.65841600000002,154.56048946874216L243.745456,153.619735728018L243.815088,152.22225433960557L244.093616,139.80937395989895L244.53752,151.91198367904872L244.720304,154.91465683840215L245.042352,150.3132256520912L245.346992,152.7143516233191L246.469808,144.77232279069722L248.129416,154.74953416083008L248.83444,153.28691795282066L248.92148,153.9985230267048L249.234824,153.8589890282601L249.330568,152.65017975168303L249.34797600000002,151.06787679996341L249.4002,153.19254656601697L249.80928799999998,149.8512294543907L249.8354,152.32159857451916L249.931144,151.0547635499388L250.218376,148.47313550114632L250.766728,149.12298757396638L250.862472,147.22565890103579L251.193224,141.96214846149087L251.5762,153.8444086657837L251.776392,154.88234948879108L252.57716000000002,153.12868282943964L252.690312,154.10849605617113L252.75994400000002,154.28607105789706L252.829576,152.63761273166165L252.98339199999998,154.90385501575656L252.992096,153.35259237140417L253.56656,151.76897337008268L253.618784,142.27541509829462L253.879904,154.77971295407042L254.167136,154.56725061917678L254.17584,147.51523125730455L254.46307199999998,151.23247479833663L254.65456,154.50701259821653L254.671968,153.7858893214725L254.7416,152.27313620317727L254.87216,140.73942544683814L255.237728,145.26860051602125L255.577184,154.69411025801674L255.585888,150.10942591167986L256.13424,147.89608701877296L256.15164799999997,153.5100106364116L256.299616,153.57661629840732L256.52592,151.8934694658965L257.04816,146.18906023725867L257.100384,155.06001343938988L257.370208,146.953442402184L257.378912,150.25460497755557L257.500768,152.61533500207588L257.74448,150.63763281144202L258.170976,149.84505390562117L258.942776,151.44566944614053" fill="none"></path></g></g></g></g></g></g><g transform="translate(58, 178)" clip-path="url(#clip_1)"><clipPath id="clip_1"><rect width="272" height="22"></rect></clipPath><g><g><line x1="0" y1="0" x2="0" y2="5" style="visibility: inherit;" fill="rgb(0, 0, 0)" stroke="rgb(204, 204, 204)" stroke-width="1px"></line><line x1="27.200000000000003" y1="0" x2="27.200000000000003" y2="5" style="visibility: inherit;" fill="rgb(0, 0, 0)" stroke="rgb(204, 204, 204)" stroke-width="1px"></line><line x1="54.400000000000006" y1="0" x2="54.400000000000006" y2="5" style="visibility: inherit;" fill="rgb(0, 0, 0)" stroke="rgb(204, 204, 204)" stroke-width="1px"></line><line x1="81.6" y1="0" x2="81.6" y2="5" style="visibility: inherit;" fill="rgb(0, 0, 0)" stroke="rgb(204, 204, 204)" stroke-width="1px"></line><line x1="108.80000000000001" y1="0" x2="108.80000000000001" y2="5" style="visibility: inherit;" fill="rgb(0, 0, 0)" stroke="rgb(204, 204, 204)" stroke-width="1px"></line><line x1="136" y1="0" x2="136" y2="5" style="visibility: inherit;" fill="rgb(0, 0, 0)" stroke="rgb(204, 204, 204)" stroke-width="1px"></line><line x1="163.2" y1="0" x2="163.2" y2="5" style="visibility: inherit;" fill="rgb(0, 0, 0)" stroke="rgb(204, 204, 204)" stroke-width="1px"></line><line x1="190.39999999999998" y1="0" x2="190.39999999999998" y2="5" style="visibility: inherit;" fill="rgb(0, 0, 0)" stroke="rgb(204, 204, 204)" stroke-width="1px"></line><line x1="217.60000000000002" y1="0" x2="217.60000000000002" y2="5" style="visibility: inherit;" fill="rgb(0, 0, 0)" stroke="rgb(204, 204, 204)" stroke-width="1px"></line><line x1="244.8" y1="0" x2="244.8" y2="5" style="visibility: inherit;" fill="rgb(0, 0, 0)" stroke="rgb(204, 204, 204)" stroke-width="1px"></line><line x1="272" y1="0" x2="272" y2="5" style="visibility: inherit;" fill="rgb(0, 0, 0)" stroke="rgb(204, 204, 204)" stroke-width="1px"></line></g><g transform="translate(0, 8)"><text x="0" y="0" dx="0em" dy="0.95em" style="text-anchor: middle; visibility: hidden; font-family: &quot;Helvetica Neue&quot;, sans-serif; font-size: 12px; font-weight: 200;" fill="rgb(50, 49, 63)" stroke="none" stroke-width="1px">-200k</text><text x="27.200000000000003" y="0" dx="0em" dy="0.95em" style="text-anchor: middle; visibility: inherit; font-family: &quot;Helvetica Neue&quot;, sans-serif; font-size: 12px; font-weight: 200;" fill="rgb(50, 49, 63)" stroke="none" stroke-width="1px">0</text><text x="54.400000000000006" y="0" dx="0em" dy="0.95em" style="text-anchor: middle; visibility: hidden; font-family: &quot;Helvetica Neue&quot;, sans-serif; font-size: 12px; font-weight: 200;" fill="rgb(50, 49, 63)" stroke="none" stroke-width="1px">200k</text><text x="81.6" y="0" dx="0em" dy="0.95em" style="text-anchor: middle; visibility: inherit; font-family: &quot;Helvetica Neue&quot;, sans-serif; font-size: 12px; font-weight: 200;" fill="rgb(50, 49, 63)" stroke="none" stroke-width="1px">400k</text><text x="108.80000000000001" y="0" dx="0em" dy="0.95em" style="text-anchor: middle; visibility: hidden; font-family: &quot;Helvetica Neue&quot;, sans-serif; font-size: 12px; font-weight: 200;" fill="rgb(50, 49, 63)" stroke="none" stroke-width="1px">600k</text><text x="136" y="0" dx="0em" dy="0.95em" style="text-anchor: middle; visibility: inherit; font-family: &quot;Helvetica Neue&quot;, sans-serif; font-size: 12px; font-weight: 200;" fill="rgb(50, 49, 63)" stroke="none" stroke-width="1px">800k</text><text x="163.2" y="0" dx="0em" dy="0.95em" style="text-anchor: middle; visibility: hidden; font-family: &quot;Helvetica Neue&quot;, sans-serif; font-size: 12px; font-weight: 200;" fill="rgb(50, 49, 63)" stroke="none" stroke-width="1px">1M</text><text x="190.39999999999998" y="0" dx="0em" dy="0.95em" style="text-anchor: middle; visibility: inherit; font-family: &quot;Helvetica Neue&quot;, sans-serif; font-size: 12px; font-weight: 200;" fill="rgb(50, 49, 63)" stroke="none" stroke-width="1px">1.2M</text><text x="217.60000000000002" y="0" dx="0em" dy="0.95em" style="text-anchor: middle; visibility: hidden; font-family: &quot;Helvetica Neue&quot;, sans-serif; font-size: 12px; font-weight: 200;" fill="rgb(50, 49, 63)" stroke="none" stroke-width="1px">1.4M</text><text x="244.8" y="0" dx="0em" dy="0.95em" style="text-anchor: middle; visibility: inherit; font-family: &quot;Helvetica Neue&quot;, sans-serif; font-size: 12px; font-weight: 200;" fill="rgb(50, 49, 63)" stroke="none" stroke-width="1px">1.6M</text><text x="272" y="0" dx="0em" dy="0.95em" style="text-anchor: middle; visibility: hidden; font-family: &quot;Helvetica Neue&quot;, sans-serif; font-size: 12px; font-weight: 200;" fill="rgb(50, 49, 63)" stroke="none" stroke-width="1px">1.8M</text></g><line x1="0" y1="0" x2="272" y2="0" fill="rgb(0, 0, 0)" stroke="rgb(204, 204, 204)" stroke-width="1px"></line></g></g></g></g></svg>